<svg id="visual" viewBox="0 0 900 600" width="900" height="600" xmlns="http://www.w3.org/2000/svg" xmlns:xlink="http://www.w3.org/1999/xlink" version="1.1"><rect width="900" height="600" fill="#feabcd"></rect><g><g transform="translate(485 576)"><path d="M3.3 -4.6C4 -3.4 4.1 -2.1 4.2 -0.9C4.2 0.3 4.1 1.3 4.1 3.4C4.1 5.5 4.2 8.5 3.1 9.2C2.1 9.8 -0.1 8 -2.2 6.9C-4.4 5.8 -6.5 5.4 -7.1 4.2C-7.7 2.9 -6.9 0.9 -6.6 -1.3C-6.3 -3.4 -6.6 -5.8 -5.6 -7C-4.6 -8.2 -2.3 -8.2 -0.5 -7.6C1.3 -7 2.6 -5.8 3.3 -4.6Z" stroke="#baebaf" fill="none" stroke-width="20"></path></g><g transform="translate(147 205)"><path d="M3.3 -4.1C3.9 -3.5 3.7 -2.1 3.6 -0.9C3.5 0.3 3.7 1.3 3.2 1.8C2.8 2.3 1.8 2.3 1 2.4C0.2 2.6 -0.4 2.8 -0.9 2.5C-1.3 2.3 -1.6 1.7 -1.7 1.1C-1.8 0.6 -1.8 0.1 -1.8 -0.3C-1.7 -0.8 -1.5 -1.2 -1.2 -1.8C-0.9 -2.5 -0.5 -3.3 0.5 -3.9C1.4 -4.4 2.8 -4.7 3.3 -4.1Z" stroke="#baebaf" fill="none" stroke-width="20"></path></g><g transform="translate(421 511)"><path d="M1.7 -2C2.4 -1.5 3.3 -1.1 3.9 -0.3C4.4 0.5 4.8 1.7 4.2 2.3C3.7 2.9 2.4 2.9 1.4 2.7C0.4 2.6 -0.1 2.3 -0.6 2C-1.1 1.7 -1.4 1.4 -1.6 1C-1.8 0.6 -1.8 0.1 -2 -0.7C-2.3 -1.4 -2.7 -2.5 -2.4 -3.1C-2 -3.6 -1 -3.6 -0.3 -3.3C0.5 -3 1 -2.4 1.7 -2Z" stroke="#baebaf" fill="none" stroke-width="20"></path></g><g transform="translate(870 305)"><path d="M3.6 -4.2C4.6 -3.5 5.3 -2.3 5.2 -1.2C5 -0.1 4 0.8 3.1 1.4C2.3 1.9 1.6 2.2 0.8 2.7C0 3.3 -0.9 4.2 -1.7 4.1C-2.5 4.1 -3.2 3.2 -4 2.2C-4.7 1.2 -5.4 0 -5.5 -1.2C-5.5 -2.4 -4.8 -3.7 -3.8 -4.4C-2.8 -5.2 -1.4 -5.4 0 -5.3C1.3 -5.3 2.6 -5 3.6 -4.2Z" stroke="#baebaf" fill="none" stroke-width="20"></path></g><g transform="translate(364 177)"><path d="M3.2 -3.2C4.1 -3 4.8 -2 4.6 -1.1C4.5 -0.2 3.5 0.6 2.9 1.9C2.4 3.1 2.4 4.7 1.6 5.5C0.8 6.3 -0.7 6.2 -2.1 5.7C-3.4 5.2 -4.6 4.3 -5 3.1C-5.4 2 -5 0.6 -4.8 -0.9C-4.7 -2.5 -4.8 -4.1 -4 -4.4C-3.2 -4.6 -1.6 -3.4 -0.2 -3.2C1.1 -2.9 2.3 -3.5 3.2 -3.2Z" stroke="#baebaf" fill="none" stroke-width="20"></path></g><g transform="translate(781 204)"><path d="M2.8 -2.9C3.4 -2.8 3.6 -1.7 3.4 -0.9C3.1 -0.1 2.5 0.5 2.1 1.2C1.7 1.9 1.5 2.6 1.1 2.7C0.7 2.7 0.1 2 -0.3 1.5C-0.7 1.1 -0.9 0.8 -1.4 0.5C-2 0.2 -2.9 -0.2 -3 -0.7C-3.1 -1.1 -2.4 -1.6 -1.8 -1.7C-1.1 -1.8 -0.6 -1.6 0.3 -1.9C1.1 -2.2 2.1 -3 2.8 -2.9Z" stroke="#baebaf" fill="none" stroke-width="20"></path></g><g transform="translate(862 462)"><path d="M0.8 -1.4C1.1 -0.8 1.4 -0.5 1.7 -0.1C1.9 0.3 2.2 0.9 2.1 1.5C2.1 2.1 1.7 2.8 1.2 2.7C0.7 2.7 0.1 1.9 -0.3 1.5C-0.7 1 -1 0.9 -1.3 0.6C-1.6 0.3 -1.9 0 -1.9 -0.3C-1.8 -0.6 -1.3 -0.8 -1 -1.4C-0.6 -2 -0.3 -2.9 0 -2.9C0.3 -2.9 0.6 -1.9 0.8 -1.4Z" stroke="#baebaf" fill="none" stroke-width="20"></path></g><g transform="translate(51 37)"><path d="M0.5 -0.6C0.6 -0.5 0.7 -0.3 0.7 -0.1C0.7 0.1 0.7 0.2 0.6 0.4C0.5 0.5 0.4 0.7 0.3 0.7C0.2 0.6 0 0.5 -0.1 0.4C-0.3 0.3 -0.4 0.3 -0.5 0.3C-0.5 0.2 -0.4 0.1 -0.4 -0.1C-0.4 -0.2 -0.4 -0.4 -0.3 -0.4C-0.3 -0.5 -0.1 -0.5 0 -0.5C0.2 -0.6 0.4 -0.7 0.5 -0.6Z" stroke="#baebaf" fill="none" stroke-width="20"></path></g><g transform="translate(165 506)"><path d="M1.8 -2.4C2.4 -1.7 3 -1.2 3.4 -0.4C3.9 0.4 4.1 1.5 3.9 2.6C3.7 3.7 3 4.9 1.8 5.6C0.7 6.2 -0.8 6.3 -2.2 5.9C-3.5 5.4 -4.7 4.4 -5.1 3.2C-5.4 2 -4.9 0.6 -4.3 -0.4C-3.7 -1.4 -3 -2.1 -2.3 -2.8C-1.6 -3.5 -0.8 -4.2 -0.1 -4.1C0.6 -4 1.2 -3.1 1.8 -2.4Z" stroke="#baebaf" fill="none" stroke-width="20"></path></g><g transform="translate(848 80)"><path d="M3 -3.1C3.7 -2.9 4.1 -1.8 4 -1C3.8 -0.1 3.1 0.7 2.5 1.2C1.9 1.8 1.5 2.3 0.7 2.9C0 3.5 -0.9 4.3 -1.8 4.3C-2.7 4.2 -3.5 3.3 -3.9 2.4C-4.4 1.4 -4.5 0.3 -4.1 -0.5C-3.7 -1.3 -2.8 -1.8 -2 -2C-1.3 -2.3 -0.6 -2.3 0.2 -2.5C1.1 -2.8 2.2 -3.4 3 -3.1Z" stroke="#baebaf" fill="none" stroke-width="20"></path></g><g transform="translate(737 106)"><path d="M5.6 -5.8C7 -5.5 7.7 -3.5 7.8 -1.6C7.9 0.3 7.4 2.2 6.3 3.2C5.2 4.3 3.5 4.6 1.8 5.5C0.1 6.3 -1.6 7.6 -2.6 7.2C-3.7 6.8 -4.2 4.8 -4.9 3.1C-5.6 1.4 -6.5 0 -6.5 -1.4C-6.5 -2.8 -5.6 -4.2 -4.4 -4.6C-3.2 -5 -1.6 -4.4 0.2 -4.7C2.1 -5 4.2 -6.2 5.6 -5.8Z" stroke="#baebaf" fill="none" stroke-width="20"></path></g><g transform="translate(696 12)"><path d="M5 -6.1C5.6 -5.5 4.6 -3 5.1 -0.8C5.7 1.5 7.9 3.7 7.5 4.3C7.1 4.9 4.1 4 1.8 4.7C-0.4 5.4 -2 7.6 -3.7 8C-5.4 8.3 -7.3 6.8 -8.2 4.9C-9.2 3 -9.2 0.7 -8.1 -0.7C-7 -2 -4.6 -2.4 -3.1 -2.9C-1.5 -3.4 -0.8 -4 0.7 -4.9C2.2 -5.8 4.4 -6.8 5 -6.1Z" stroke="#baebaf" fill="none" stroke-width="20"></path></g><g transform="translate(92 205)"><path d="M1.4 -1.5C1.7 -1.4 1.8 -0.9 1.8 -0.4C1.9 0.1 1.7 0.5 1.6 1C1.4 1.5 1.2 2 0.8 2.2C0.4 2.4 -0.2 2.3 -0.8 2.1C-1.4 1.9 -1.9 1.7 -2 1.3C-2.2 0.9 -1.8 0.3 -1.6 -0.2C-1.4 -0.6 -1.3 -1 -1 -1.2C-0.8 -1.4 -0.4 -1.4 0.1 -1.4C0.5 -1.5 1.1 -1.7 1.4 -1.5Z" stroke="#baebaf" fill="none" stroke-width="20"></path></g><g transform="translate(825 176)"><path d="M4.3 -5C5 -4.4 4.9 -2.6 4.6 -1.3C4.3 0.1 3.9 1 3.4 2C2.9 3 2.4 4.1 1.6 4.2C0.9 4.3 0 3.6 -1 3.1C-1.9 2.6 -2.9 2.4 -3.9 1.7C-5 1 -6.3 -0.2 -6.7 -1.8C-7.2 -3.4 -6.8 -5.5 -5.5 -6.1C-4.3 -6.6 -2.1 -5.5 -0.2 -5.3C1.7 -5 3.5 -5.6 4.3 -5Z" stroke="#baebaf" fill="none" stroke-width="20"></path></g><g transform="translate(145 278)"><path d="M0.7 -0.8C0.9 -0.6 1.2 -0.4 1.3 -0.2C1.4 0.1 1.3 0.4 1.1 0.6C0.9 0.7 0.6 0.8 0.3 0.9C0 1.1 -0.3 1.3 -0.5 1.3C-0.7 1.3 -0.8 0.9 -0.9 0.6C-0.9 0.3 -1 0.1 -1 -0.3C-1.1 -0.6 -1.2 -1.1 -1 -1.3C-0.9 -1.5 -0.4 -1.5 -0.1 -1.3C0.2 -1.2 0.4 -1 0.7 -0.8Z" stroke="#baebaf" fill="none" stroke-width="20"></path></g><g transform="translate(25 162)"><path d="M1.7 -2C2.1 -1.7 2.2 -1 2.4 -0.3C2.7 0.4 3 1.2 2.8 1.7C2.6 2.1 1.7 2.3 1.1 2.3C0.4 2.2 -0.1 2 -0.7 1.8C-1.3 1.6 -2 1.6 -2.5 1.2C-3.1 0.8 -3.5 0 -3.4 -0.6C-3.2 -1.2 -2.5 -1.7 -1.9 -2C-1.2 -2.3 -0.6 -2.4 0 -2.4C0.6 -2.5 1.3 -2.4 1.7 -2Z" stroke="#baebaf" fill="none" stroke-width="20"></path></g><g transform="translate(679 107)"><path d="M0.8 -0.9C1 -0.7 1.3 -0.5 1.3 -0.3C1.3 -0.1 1 0.2 0.8 0.5C0.7 0.9 0.7 1.4 0.5 1.5C0.3 1.7 -0.1 1.6 -0.4 1.3C-0.6 1.1 -0.7 0.8 -0.8 0.5C-0.9 0.2 -1.1 0 -1.1 -0.2C-1.1 -0.4 -0.8 -0.6 -0.6 -0.8C-0.4 -1.1 -0.2 -1.4 0 -1.5C0.2 -1.5 0.5 -1.2 0.8 -0.9Z" stroke="#baebaf" fill="none" stroke-width="20"></path></g><g transform="translate(60 491)"><path d="M0.4 -0.6C0.5 -0.3 0.7 -0.2 0.7 -0.1C0.8 0 0.7 0.2 0.7 0.5C0.6 0.8 0.6 1.3 0.4 1.5C0.3 1.7 -0.1 1.6 -0.5 1.4C-0.9 1.3 -1.2 1.1 -1.5 0.8C-1.7 0.5 -1.8 0.1 -1.7 -0.3C-1.6 -0.6 -1.3 -0.9 -1 -1.1C-0.7 -1.3 -0.3 -1.5 -0.1 -1.4C0.1 -1.3 0.2 -0.8 0.4 -0.6Z" stroke="#baebaf" fill="none" stroke-width="20"></path></g><g transform="translate(389 461)"><path d="M1.5 -1.6C1.9 -1.4 2.2 -0.9 2.1 -0.5C2 -0.1 1.5 0.2 1.3 0.9C1.1 1.5 1.1 2.4 0.7 2.9C0.4 3.4 -0.5 3.5 -1.2 3.3C-2 3 -2.6 2.5 -2.8 1.8C-3 1.1 -2.7 0.3 -2.5 -0.4C-2.3 -1.1 -2.1 -1.7 -1.7 -1.9C-1.3 -2.1 -0.6 -1.8 -0.1 -1.7C0.5 -1.7 1 -1.8 1.5 -1.6Z" stroke="#baebaf" fill="none" stroke-width="20"></path></g><g transform="translate(793 142)"><path d="M3.6 -5C4.1 -4 3.4 -2.2 3.3 -0.9C3.2 0.5 3.7 1.5 3.7 2.8C3.7 4.1 3.2 5.8 2.2 6.3C1.2 6.8 -0.4 6.1 -1.8 5.4C-3.1 4.7 -4.3 3.9 -4.4 2.9C-4.6 1.9 -3.8 0.7 -3.8 -0.8C-3.7 -2.3 -4.3 -4.1 -3.8 -5.2C-3.3 -6.2 -1.7 -6.5 0 -6.4C1.6 -6.4 3.2 -6.1 3.6 -5Z" stroke="#baebaf" fill="none" stroke-width="20"></path></g><g transform="translate(639 397)"><path d="M1.1 -1C1.6 -0.9 2.4 -0.7 2.6 -0.3C2.8 0.1 2.5 0.7 2.2 1.3C1.9 1.9 1.5 2.6 1.1 2.7C0.6 2.7 0 2.2 -0.4 1.8C-0.9 1.4 -1.2 1.1 -1.5 0.8C-1.9 0.4 -2.3 0 -2.4 -0.6C-2.6 -1.3 -2.5 -2.1 -2 -2.2C-1.6 -2.4 -0.8 -1.9 -0.3 -1.6C0.3 -1.3 0.6 -1.2 1.1 -1Z" stroke="#baebaf" fill="none" stroke-width="20"></path></g><g transform="translate(14 191)"><path d="M4.4 -6.1C5.1 -4.6 4.7 -2.7 4.5 -1.2C4.3 0.4 4.4 1.5 4.1 2.9C3.9 4.3 3.3 6 1.9 7.4C0.5 8.8 -1.8 10 -2.8 9C-3.8 8 -3.5 4.9 -4.2 2.8C-4.8 0.7 -6.5 -0.4 -6.5 -1.2C-6.4 -2.1 -4.6 -2.7 -3.2 -4.1C-1.9 -5.5 -0.9 -7.6 0.4 -8.2C1.8 -8.7 3.7 -7.6 4.4 -6.1Z" stroke="#baebaf" fill="none" stroke-width="20"></path></g><g transform="translate(523 509)"><path d="M1.1 -1.4C1.3 -1 1.5 -0.7 1.4 -0.3C1.4 0 1.1 0.2 1 0.7C0.9 1.2 0.9 1.8 0.6 2.1C0.3 2.4 -0.2 2.3 -0.6 2C-1 1.7 -1.1 1.2 -1.2 0.8C-1.3 0.4 -1.4 0.1 -1.4 -0.3C-1.4 -0.8 -1.5 -1.3 -1.2 -1.7C-1 -2.1 -0.5 -2.3 -0.1 -2.3C0.4 -2.2 0.8 -1.8 1.1 -1.4Z" stroke="#baebaf" fill="none" stroke-width="20"></path></g><g transform="translate(727 597)"><path d="M3.3 -3.9C4.7 -2.8 6.3 -2.1 7 -0.9C7.7 0.4 7.4 2.2 6.3 3.2C5.3 4.2 3.5 4.4 2.1 4.3C0.7 4.2 -0.3 3.9 -1.1 3.4C-1.9 3 -2.6 2.4 -3.7 1.6C-4.8 0.8 -6.4 -0.3 -6.5 -1.4C-6.5 -2.4 -5.1 -3.4 -3.8 -4.4C-2.4 -5.5 -1.2 -6.7 -0.1 -6.6C1 -6.5 2 -5 3.3 -3.9Z" stroke="#baebaf" fill="none" stroke-width="20"></path></g><g transform="translate(598 370)"><path d="M2.6 -3.2C3.1 -2.7 3.1 -1.6 2.8 -0.9C2.5 -0.1 1.9 0.3 1.5 0.7C1.1 1.1 0.9 1.5 0.5 1.7C0.2 2 -0.3 2 -1 2.1C-1.8 2.1 -2.8 2.2 -3.1 1.8C-3.3 1.4 -2.7 0.5 -2.4 -0.3C-2.2 -1.1 -2.2 -1.9 -1.8 -2.4C-1.5 -3 -0.7 -3.4 0.2 -3.6C1.1 -3.8 2.1 -3.8 2.6 -3.2Z" stroke="#baebaf" fill="none" stroke-width="20"></path></g><g transform="translate(217 387)"><path d="M4 -5.7C4.6 -4.4 3.9 -2.5 3.8 -1C3.7 0.6 4.3 1.7 4.2 3C4.1 4.3 3.4 5.9 2.3 6.3C1.2 6.7 -0.4 5.9 -2 5.4C-3.6 4.8 -5.4 4.5 -6.3 3.4C-7.3 2.3 -7.4 0.5 -6.7 -0.7C-5.9 -2 -4.3 -2.6 -3.1 -3.9C-1.8 -5.1 -0.9 -6.9 0.4 -7.4C1.7 -7.9 3.5 -7.1 4 -5.7Z" stroke="#baebaf" fill="none" stroke-width="20"></path></g><g transform="translate(435 359)"><path d="M5.5 -6.4C6.3 -5.9 5.7 -3.4 5.6 -1.4C5.5 0.7 6 2.2 5.5 3.3C5 4.4 3.5 5.1 1.9 6.1C0.2 7.1 -1.6 8.4 -3 8C-4.3 7.6 -5 5.4 -5.6 3.6C-6.3 1.8 -6.8 0.2 -6.5 -1.1C-6.3 -2.5 -5.2 -3.7 -4 -4.2C-2.8 -4.7 -1.4 -4.5 0.5 -5.1C2.3 -5.7 4.7 -7 5.5 -6.4Z" stroke="#baebaf" fill="none" stroke-width="20"></path></g><g transform="translate(617 250)"><path d="M2.8 -3.6C3.4 -2.9 3.3 -1.8 3 -0.9C2.7 -0.1 2.1 0.4 1.8 1.2C1.5 2 1.6 3.2 1 3.9C0.4 4.6 -0.7 4.8 -1.2 4.3C-1.8 3.7 -1.7 2.3 -2 1.4C-2.2 0.4 -2.8 -0.1 -2.8 -0.5C-2.8 -1 -2.1 -1.4 -1.5 -2C-1 -2.6 -0.5 -3.6 0.3 -4C1.2 -4.4 2.3 -4.2 2.8 -3.6Z" stroke="#baebaf" fill="none" stroke-width="20"></path></g><g transform="translate(43 528)"><path d="M0.7 -0.9C1 -0.6 1.3 -0.5 1.3 -0.3C1.3 -0.1 0.9 0.1 0.8 0.4C0.6 0.8 0.6 1.2 0.4 1.4C0.2 1.6 -0.1 1.5 -0.4 1.3C-0.6 1.1 -0.8 0.8 -0.9 0.5C-1.1 0.3 -1.3 0 -1.3 -0.3C-1.3 -0.5 -1 -0.7 -0.8 -1C-0.5 -1.3 -0.3 -1.5 0 -1.5C0.2 -1.5 0.4 -1.1 0.7 -0.9Z" stroke="#baebaf" fill="none" stroke-width="20"></path></g><g transform="translate(677 459)"><path d="M1.2 -1.1C1.7 -1 2.2 -0.8 2.3 -0.4C2.3 -0.1 1.9 0.4 1.5 0.9C1.2 1.3 1.1 1.9 0.7 2.2C0.3 2.6 -0.4 2.7 -0.7 2.4C-1 2.1 -1.1 1.3 -1.1 0.8C-1.2 0.3 -1.4 0 -1.5 -0.4C-1.6 -0.8 -1.6 -1.4 -1.3 -1.5C-1.1 -1.7 -0.5 -1.5 -0.1 -1.4C0.4 -1.2 0.7 -1.3 1.2 -1.1Z" stroke="#baebaf" fill="none" stroke-width="20"></path></g><g transform="translate(338 333)"><path d="M0.4 -0.5C0.5 -0.4 0.6 -0.2 0.7 -0.1C0.7 0.1 0.8 0.3 0.7 0.3C0.6 0.4 0.3 0.3 0.2 0.4C0 0.4 -0.1 0.6 -0.3 0.6C-0.4 0.6 -0.5 0.5 -0.5 0.3C-0.6 0.2 -0.6 0.1 -0.5 -0.1C-0.5 -0.2 -0.4 -0.3 -0.3 -0.4C-0.2 -0.5 -0.1 -0.7 0 -0.7C0.1 -0.7 0.3 -0.6 0.4 -0.5Z" stroke="#baebaf" fill="none" stroke-width="20"></path></g><g transform="translate(687 61)"><path d="M0.8 -0.9C1.1 -0.7 1.4 -0.5 1.3 -0.3C1.3 -0.1 1 0.1 0.7 0.3C0.5 0.4 0.3 0.5 0.1 0.7C-0.1 0.9 -0.3 1.2 -0.6 1.2C-0.8 1.3 -1 1 -1.3 0.7C-1.5 0.4 -1.7 0 -1.6 -0.2C-1.5 -0.5 -1.1 -0.6 -0.8 -0.8C-0.4 -1.1 -0.2 -1.3 0 -1.3C0.3 -1.4 0.5 -1.1 0.8 -0.9Z" stroke="#baebaf" fill="none" stroke-width="20"></path></g><g transform="translate(849 23)"><path d="M0.3 -0.4C0.4 -0.3 0.5 -0.2 0.6 -0.1C0.6 0.1 0.6 0.2 0.6 0.4C0.5 0.5 0.4 0.6 0.3 0.7C0.1 0.7 0 0.6 -0.2 0.5C-0.3 0.4 -0.5 0.4 -0.6 0.3C-0.7 0.2 -0.8 0 -0.8 -0.1C-0.7 -0.2 -0.5 -0.3 -0.4 -0.4C-0.2 -0.4 -0.1 -0.5 0 -0.5C0.1 -0.5 0.2 -0.5 0.3 -0.4Z" stroke="#baebaf" fill="none" stroke-width="20"></path></g><g transform="translate(386 55)"><path d="M1.2 -1.4C1.6 -1.2 1.8 -0.8 1.8 -0.4C1.7 0 1.4 0.3 1.2 0.6C0.9 0.9 0.7 1.3 0.5 1.4C0.2 1.5 -0.1 1.4 -0.4 1.2C-0.6 1 -0.7 0.7 -1 0.5C-1.2 0.2 -1.7 -0.1 -1.8 -0.4C-1.8 -0.8 -1.6 -1.1 -1.2 -1.4C-0.8 -1.6 -0.4 -1.7 0 -1.7C0.4 -1.7 0.9 -1.7 1.2 -1.4Z" stroke="#baebaf" fill="none" stroke-width="20"></path></g><g transform="translate(538 124)"><path d="M0.3 -0.4C0.4 -0.2 0.5 -0.2 0.5 0C0.6 0.1 0.7 0.3 0.7 0.4C0.6 0.6 0.5 0.7 0.3 0.8C0.1 0.8 -0.1 0.8 -0.2 0.8C-0.4 0.7 -0.4 0.5 -0.5 0.3C-0.6 0.1 -0.8 0 -0.7 -0.1C-0.7 -0.2 -0.4 -0.2 -0.3 -0.3C-0.1 -0.5 -0.1 -0.7 0 -0.7C0.1 -0.7 0.2 -0.5 0.3 -0.4Z" stroke="#baebaf" fill="none" stroke-width="20"></path></g><g transform="translate(239 577)"><path d="M4.7 -5.4C5.6 -4.8 5.5 -2.9 6.1 -0.9C6.7 1.1 8 3.2 7.5 4.5C7 5.8 4.7 6.2 2.7 6.6C0.7 6.9 -1 7.3 -3 7C-4.9 6.8 -7 6.1 -8.1 4.5C-9.1 3 -9 0.7 -8.3 -1.1C-7.5 -2.9 -6.1 -4.3 -4.6 -4.7C-3.1 -5.2 -1.6 -4.8 0.2 -5C1.9 -5.2 3.7 -6 4.7 -5.4Z" stroke="#baebaf" fill="none" stroke-width="20"></path></g><g transform="translate(853 146)"><path d="M1.1 -1.6C1.4 -1.1 1.6 -0.7 2.1 -0.1C2.5 0.6 3.3 1.5 3.2 2C3.1 2.5 2 2.6 1.3 2.4C0.5 2.2 0 1.7 -0.8 1.7C-1.7 1.6 -2.9 2 -3.1 1.8C-3.3 1.5 -2.5 0.6 -2.2 -0.3C-1.9 -1.1 -2.1 -2 -1.9 -2.5C-1.6 -3 -0.8 -3.1 -0.2 -2.8C0.4 -2.6 0.8 -2 1.1 -1.6Z" stroke="#baebaf" fill="none" stroke-width="20"></path></g><g transform="translate(780 502)"><path d="M2 -2.5C2.8 -1.7 3.9 -1.3 4.3 -0.5C4.7 0.2 4.5 1.3 3.8 1.9C3.1 2.5 2.1 2.6 1 3.1C0 3.7 -1.1 4.7 -1.8 4.6C-2.5 4.4 -3 3.2 -3.7 2.1C-4.4 0.9 -5.3 -0.1 -5.7 -1.5C-6.1 -3 -5.9 -4.9 -4.8 -5.6C-3.8 -6.4 -1.9 -6 -0.7 -5.2C0.6 -4.4 1.2 -3.2 2 -2.5Z" stroke="#baebaf" fill="none" stroke-width="20"></path></g><g transform="translate(716 273)"><path d="M2.4 -2.8C3 -2.4 3.4 -1.5 4 -0.3C4.7 0.8 5.6 2.3 5.5 3.6C5.3 4.9 3.9 6 2.6 6.1C1.2 6.1 -0.2 5.2 -1.1 4.3C-2 3.4 -2.6 2.6 -3.5 1.7C-4.4 0.8 -5.8 -0.2 -5.7 -1C-5.6 -1.8 -4 -2.4 -2.8 -2.7C-1.6 -3 -0.8 -3.1 0 -3.2C0.9 -3.2 1.8 -3.2 2.4 -2.8Z" stroke="#baebaf" fill="none" stroke-width="20"></path></g><g transform="translate(398 561)"><path d="M1.4 -1.5C1.7 -1.4 1.7 -0.9 1.6 -0.5C1.4 -0.1 1 0.2 0.9 0.6C0.7 1 0.8 1.7 0.5 2C0.3 2.4 -0.3 2.5 -0.7 2.2C-1 1.9 -1.1 1.3 -1.3 0.8C-1.5 0.4 -1.8 0 -1.7 -0.2C-1.6 -0.5 -1.1 -0.6 -0.8 -0.7C-0.4 -0.8 -0.2 -0.8 0.2 -1C0.6 -1.2 1.1 -1.6 1.4 -1.5Z" stroke="#baebaf" fill="none" stroke-width="20"></path></g><g transform="translate(266 405)"><path d="M1.9 -2.3C2.3 -1.9 2.4 -1.2 2.2 -0.6C2.1 0 1.7 0.4 1.6 1.1C1.4 1.9 1.4 2.9 1 3.4C0.5 3.9 -0.4 3.8 -1.2 3.4C-2 3.1 -2.6 2.5 -3.1 1.8C-3.5 1 -3.7 0.2 -3.4 -0.5C-3.2 -1.1 -2.4 -1.5 -1.7 -1.8C-1 -2.2 -0.5 -2.5 0.1 -2.6C0.8 -2.8 1.5 -2.7 1.9 -2.3Z" stroke="#baebaf" fill="none" stroke-width="20"></path></g><g transform="translate(167 44)"><path d="M3.4 -4.1C4.5 -3.1 5.6 -2.1 6 -0.9C6.4 0.3 6.1 1.8 5.3 3C4.5 4.1 3.3 4.8 2.1 5C0.8 5.1 -0.3 4.6 -1.7 4.3C-3.1 4 -4.7 3.8 -5.5 3C-6.3 2.1 -6.3 0.5 -5.8 -0.7C-5.2 -2 -4.1 -2.8 -3.1 -3.8C-2 -4.8 -1 -6 0.1 -6.1C1.1 -6.2 2.3 -5.1 3.4 -4.1Z" stroke="#baebaf" fill="none" stroke-width="20"></path></g><g transform="translate(740 60)"><path d="M0.8 -1.1C0.9 -0.8 0.7 -0.5 0.6 -0.2C0.6 0.1 0.6 0.2 0.6 0.4C0.5 0.5 0.4 0.7 0.3 0.7C0.1 0.8 -0.1 0.8 -0.4 0.8C-0.7 0.8 -1 0.8 -1.3 0.6C-1.6 0.4 -1.8 0 -1.7 -0.3C-1.7 -0.7 -1.5 -1.1 -1.2 -1.4C-0.8 -1.6 -0.4 -1.7 0 -1.7C0.3 -1.6 0.7 -1.4 0.8 -1.1Z" stroke="#baebaf" fill="none" stroke-width="20"></path></g><g transform="translate(153 163)"><path d="M0.7 -0.9C1.1 -0.6 1.6 -0.5 1.9 -0.1C2.2 0.2 2.3 0.8 2 1.1C1.8 1.4 1.2 1.5 0.7 1.4C0.2 1.4 -0.1 1.3 -0.5 1.2C-0.9 1.1 -1.4 1.1 -1.7 0.9C-2 0.6 -2.1 0.1 -1.9 -0.2C-1.7 -0.6 -1.3 -0.9 -1 -1.2C-0.6 -1.4 -0.3 -1.8 -0.1 -1.7C0.2 -1.7 0.4 -1.2 0.7 -0.9Z" stroke="#baebaf" fill="none" stroke-width="20"></path></g><g transform="translate(269 272)"><path d="M1.9 -2.3C2.5 -1.8 3.1 -1.2 3.5 -0.4C3.8 0.4 4.1 1.5 3.8 2.3C3.5 3.2 2.6 4 1.7 4.1C0.7 4.3 -0.2 3.8 -1.1 3.3C-1.9 2.9 -2.6 2.4 -3.1 1.7C-3.6 1.1 -3.8 0.2 -3.8 -0.8C-3.7 -1.8 -3.5 -2.8 -2.8 -3.3C-2.2 -3.8 -1.1 -3.7 -0.2 -3.4C0.7 -3.2 1.3 -2.8 1.9 -2.3Z" stroke="#baebaf" fill="none" stroke-width="20"></path></g><g transform="translate(108 176)"><path d="M4.6 -4.7C5.8 -4.5 6.5 -2.9 6.6 -1.3C6.7 0.2 6.1 1.7 5.2 2.7C4.3 3.8 3.1 4.5 1.8 4.8C0.6 5.2 -0.7 5.3 -1.7 4.9C-2.8 4.4 -3.6 3.5 -4.5 2.4C-5.4 1.3 -6.3 0 -6.6 -1.7C-6.9 -3.4 -6.6 -5.4 -5.4 -5.7C-4.2 -6 -2.1 -4.5 -0.2 -4.2C1.7 -4 3.4 -5 4.6 -4.7Z" stroke="#baebaf" fill="none" stroke-width="20"></path></g><g transform="translate(198 481)"><path d="M3.6 -3.7C4.7 -3.4 5.6 -2.3 5.3 -1.3C5 -0.4 3.5 0.4 2.8 1.7C2.2 3.1 2.3 5 1.5 6.1C0.7 7.2 -1 7.5 -2 6.6C-2.9 5.7 -2.9 3.7 -3.8 2.2C-4.7 0.6 -6.5 -0.4 -6.6 -1.4C-6.6 -2.3 -5 -3.2 -3.6 -3.4C-2.3 -3.6 -1.1 -3.2 0.1 -3.3C1.3 -3.4 2.5 -3.9 3.6 -3.7Z" stroke="#baebaf" fill="none" stroke-width="20"></path></g><g transform="translate(643 523)"><path d="M2.1 -2.3C2.7 -2.1 3 -1.3 3.1 -0.6C3.2 0.2 3.1 1 2.6 1.3C2.2 1.7 1.4 1.6 0.8 1.6C0.2 1.6 -0.2 1.6 -0.9 1.7C-1.5 1.7 -2.4 1.8 -3 1.4C-3.6 1 -3.9 0.1 -3.7 -0.6C-3.5 -1.3 -2.8 -1.9 -2.1 -2C-1.4 -2.2 -0.7 -1.9 0.1 -1.9C0.8 -2 1.6 -2.4 2.1 -2.3Z" stroke="#baebaf" fill="none" stroke-width="20"></path></g><g transform="translate(240 210)"><path d="M0.9 -0.9C1.1 -0.8 1.4 -0.6 1.3 -0.3C1.2 -0.1 0.9 0.1 0.7 0.4C0.5 0.7 0.5 1.1 0.4 1.2C0.2 1.4 -0.1 1.3 -0.3 1.1C-0.5 0.9 -0.5 0.6 -0.7 0.4C-0.8 0.1 -1.1 -0.1 -1.1 -0.3C-1.2 -0.5 -1 -0.7 -0.7 -0.8C-0.5 -0.9 -0.3 -0.9 0 -0.9C0.3 -0.9 0.6 -1 0.9 -0.9Z" stroke="#baebaf" fill="none" stroke-width="20"></path></g><g transform="translate(872 184)"><path d="M1.1 -1.2C1.4 -1 1.7 -0.7 1.8 -0.3C1.9 0.1 1.9 0.6 1.7 1.1C1.5 1.6 1.2 2 0.8 2.1C0.5 2.1 0 1.7 -0.5 1.4C-0.9 1.2 -1.4 1.1 -1.7 0.8C-2 0.6 -2.2 0.1 -2 -0.2C-1.7 -0.5 -1.1 -0.5 -0.7 -0.7C-0.3 -0.8 -0.2 -1 0.1 -1.1C0.4 -1.3 0.8 -1.3 1.1 -1.2Z" stroke="#baebaf" fill="none" stroke-width="20"></path></g><g transform="translate(227 18)"><path d="M1.9 -2.3C2.2 -2.1 1.8 -1.2 1.9 -0.4C2.1 0.5 2.7 1.2 2.7 1.8C2.6 2.5 2 3.1 1.3 3.2C0.6 3.3 -0.2 2.9 -0.6 2.5C-1.1 2 -1.2 1.4 -1.4 0.9C-1.7 0.4 -1.9 0 -2.1 -0.6C-2.3 -1.3 -2.4 -2.2 -2.1 -2.4C-1.7 -2.6 -0.9 -2.2 0 -2.2C0.8 -2.2 1.7 -2.6 1.9 -2.3Z" stroke="#baebaf" fill="none" stroke-width="20"></path></g><g transform="translate(64 228)"><path d="M5.6 -5.8C7 -5.5 7.8 -3.5 7.3 -1.9C6.8 -0.4 5 0.7 3.8 1.5C2.6 2.4 1.9 2.9 0.9 3.7C0 4.6 -1.3 5.8 -2.9 6.1C-4.5 6.3 -6.5 5.6 -7.1 4.2C-7.7 2.9 -7 0.9 -6.6 -1.1C-6.1 -3.1 -6 -5 -4.9 -5.4C-3.9 -5.8 -1.9 -4.7 0.1 -4.8C2.1 -4.9 4.2 -6.2 5.6 -5.8Z" stroke="#baebaf" fill="none" stroke-width="20"></path></g><g transform="translate(497 313)"><path d="M5.5 -6.7C6.9 -5.4 7.7 -3.4 7.5 -1.7C7.2 -0.1 6 1.4 5.2 3.1C4.3 4.9 3.8 7.1 2.7 7.4C1.6 7.8 -0.1 6.4 -1.8 5.6C-3.6 4.7 -5.3 4.4 -5.9 3.4C-6.5 2.4 -5.9 0.7 -5.3 -0.6C-4.7 -2 -4 -3 -3.1 -4.4C-2.3 -5.8 -1.1 -7.5 0.5 -8.1C2 -8.6 4.1 -8 5.5 -6.7Z" stroke="#baebaf" fill="none" stroke-width="20"></path></g><g transform="translate(617 577)"><path d="M2 -1.7C2.9 -1.6 4.3 -1.3 4.4 -0.7C4.6 -0.2 3.6 0.7 2.8 1.3C2.1 2 1.6 2.5 1 2.9C0.3 3.2 -0.5 3.4 -1.3 3.2C-2 3 -2.8 2.5 -3.4 1.8C-4 1 -4.5 0.1 -4.3 -0.6C-4 -1.3 -2.9 -1.7 -2.1 -1.9C-1.2 -2.2 -0.6 -2.2 0 -2.1C0.5 -2.1 1 -1.9 2 -1.7Z" stroke="#baebaf" fill="none" stroke-width="20"></path></g><g transform="translate(236 357)"><path d="M0.7 -0.8C0.9 -0.7 1.2 -0.5 1.3 -0.1C1.5 0.2 1.6 0.6 1.4 0.7C1.2 0.8 0.7 0.6 0.3 0.7C-0.1 0.8 -0.3 1.2 -0.5 1.2C-0.8 1.3 -0.9 1 -1 0.7C-1 0.4 -0.9 0.1 -0.9 -0.2C-0.9 -0.5 -1 -1 -0.9 -1.1C-0.8 -1.3 -0.4 -1.3 -0.1 -1.2C0.2 -1.2 0.5 -1 0.7 -0.8Z" stroke="#baebaf" fill="none" stroke-width="20"></path></g><g transform="translate(772 310)"><path d="M2.4 -2.8C3.2 -2.2 3.9 -1.5 4.3 -0.6C4.6 0.4 4.6 1.5 4.3 2.9C4 4.2 3.3 5.7 2.3 6C1.2 6.3 -0.2 5.4 -1.5 4.7C-2.9 4 -4.1 3.5 -5.1 2.6C-6.1 1.6 -7 0.1 -6.7 -1.1C-6.4 -2.4 -5 -3.4 -3.7 -3.8C-2.4 -4.3 -1.2 -4.2 -0.2 -4C0.8 -3.8 1.6 -3.3 2.4 -2.8Z" stroke="#baebaf" fill="none" stroke-width="20"></path></g><g transform="translate(395 162)"><path d="M1.5 -2C1.8 -1.6 1.6 -0.9 1.5 -0.4C1.5 0.1 1.5 0.5 1.3 0.7C1.1 0.9 0.7 0.8 0.4 0.9C0 1 -0.2 1.2 -0.4 1.1C-0.6 1.1 -0.7 0.8 -1.1 0.5C-1.5 0.1 -2.2 -0.2 -2.3 -0.6C-2.5 -0.9 -2 -1.4 -1.5 -1.7C-1 -2 -0.5 -2.3 0.1 -2.3C0.6 -2.4 1.3 -2.4 1.5 -2Z" stroke="#baebaf" fill="none" stroke-width="20"></path></g><g transform="translate(578 151)"><path d="M2.6 -2.5C3.5 -2.3 4.4 -1.6 4.3 -1C4.2 -0.3 3 0.4 2.4 1.2C1.7 2 1.6 3 1.1 3.3C0.6 3.6 -0.2 3.3 -1.3 3.1C-2.3 2.9 -3.6 2.9 -3.9 2.3C-4.2 1.7 -3.4 0.6 -3.1 -0.4C-2.7 -1.4 -2.8 -2.4 -2.3 -2.6C-1.9 -2.9 -0.9 -2.4 0 -2.4C0.9 -2.3 1.7 -2.7 2.6 -2.5Z" stroke="#baebaf" fill="none" stroke-width="20"></path></g><g transform="translate(36 370)"><path d="M1.4 -1.7C1.6 -1.5 1.4 -0.9 1.2 -0.4C1 0 0.9 0.2 0.8 0.4C0.6 0.7 0.5 0.9 0.3 1.2C0.1 1.4 -0.3 1.6 -0.6 1.5C-0.9 1.5 -1.2 1.2 -1.2 0.8C-1.2 0.5 -1 0.2 -1 -0.2C-0.9 -0.6 -1.1 -1.1 -1 -1.3C-0.9 -1.5 -0.4 -1.5 0.1 -1.6C0.6 -1.7 1.2 -1.9 1.4 -1.7Z" stroke="#baebaf" fill="none" stroke-width="20"></path></g><g transform="translate(352 53)"><path d="M3.8 -4.3C5.1 -3.4 6.6 -2.4 7.2 -1C7.9 0.5 7.7 2.4 6.5 3.2C5.4 4 3.3 3.6 1.6 3.9C0 4.3 -1.2 5.3 -2 5.2C-2.9 5 -3.4 3.7 -4 2.4C-4.5 1.2 -5.1 0.1 -5 -1C-4.9 -2 -4.1 -3 -3.2 -4C-2.3 -4.9 -1.1 -5.8 0 -5.9C1.2 -5.9 2.5 -5.1 3.8 -4.3Z" stroke="#baebaf" fill="none" stroke-width="20"></path></g><g transform="translate(100 599)"><path d="M1 -1.2C1.2 -1 1.1 -0.6 1.2 -0.2C1.3 0.2 1.5 0.6 1.4 0.9C1.3 1.2 1 1.5 0.7 1.5C0.3 1.5 0 1.1 -0.2 0.9C-0.4 0.7 -0.6 0.5 -0.8 0.4C-1 0.2 -1.3 -0.1 -1.3 -0.3C-1.3 -0.5 -1.1 -0.7 -0.8 -0.9C-0.6 -1.1 -0.3 -1.2 0.1 -1.3C0.4 -1.4 0.8 -1.4 1 -1.2Z" stroke="#baebaf" fill="none" stroke-width="20"></path></g><g transform="translate(27 114)"><path d="M0.5 -0.5C0.7 -0.4 1.1 -0.3 1.3 -0.1C1.5 0.1 1.5 0.5 1.4 0.9C1.3 1.2 1 1.5 0.6 1.6C0.3 1.7 -0.2 1.6 -0.5 1.5C-0.8 1.3 -1.1 1 -1.3 0.7C-1.5 0.4 -1.7 0 -1.7 -0.3C-1.6 -0.7 -1.4 -1 -1.1 -1.1C-0.8 -1.1 -0.4 -0.9 -0.1 -0.8C0.1 -0.6 0.3 -0.5 0.5 -0.5Z" stroke="#baebaf" fill="none" stroke-width="20"></path></g><g transform="translate(288 42)"><path d="M0.8 -0.9C1.1 -0.8 1.3 -0.5 1.2 -0.3C1.2 -0.1 0.9 0.2 0.7 0.4C0.6 0.6 0.5 0.9 0.3 1C0.1 1.2 -0.2 1.2 -0.4 1.1C-0.6 1 -0.7 0.7 -0.8 0.5C-1 0.3 -1 0 -1.1 -0.2C-1.1 -0.5 -1 -0.8 -0.8 -1C-0.7 -1.1 -0.3 -1.1 0 -1.1C0.3 -1.1 0.6 -1 0.8 -0.9Z" stroke="#baebaf" fill="none" stroke-width="20"></path></g><g transform="translate(169 260)"><path d="M2.9 -3.2C3.6 -2.8 3.9 -1.8 3.9 -0.8C4 0.2 3.8 1.1 3.2 1.6C2.6 2 1.6 1.9 0.7 2.4C-0.2 2.9 -1 4.1 -1.8 4.2C-2.6 4.2 -3.3 3.3 -3.8 2.3C-4.3 1.2 -4.6 0.2 -4.3 -0.7C-4 -1.5 -3.2 -2.2 -2.4 -2.6C-1.6 -2.9 -0.8 -3.1 0.1 -3.2C1.1 -3.4 2.2 -3.6 2.9 -3.2Z" stroke="#baebaf" fill="none" stroke-width="20"></path></g><g transform="translate(850 406)"><path d="M5.9 -6.5C7.4 -5.7 8.3 -3.7 8.3 -1.8C8.2 0.1 7.3 1.9 6.1 3.1C4.9 4.2 3.4 4.8 1.9 5.5C0.4 6.1 -1.2 6.8 -2.7 6.6C-4.3 6.5 -5.9 5.4 -7 3.9C-8.1 2.3 -8.7 0.3 -8.3 -1.4C-7.9 -3.1 -6.5 -4.6 -4.9 -5.3C-3.4 -6.1 -1.7 -6.1 0.2 -6.4C2.2 -6.7 4.3 -7.2 5.9 -6.5Z" stroke="#baebaf" fill="none" stroke-width="20"></path></g><g transform="translate(575 345)"><path d="M2.2 -3.1C2.6 -2.3 2.3 -1.4 2.5 -0.4C2.8 0.5 3.4 1.5 3.4 2.2C3.3 3 2.4 3.6 1.5 3.9C0.5 4.2 -0.5 4.1 -1.1 3.6C-1.6 3.1 -1.8 2.1 -2.5 1.3C-3.2 0.4 -4.5 -0.3 -4.5 -0.9C-4.5 -1.4 -3.2 -1.8 -2.2 -2.5C-1.2 -3.2 -0.6 -4.1 0.2 -4.3C0.9 -4.5 1.9 -3.9 2.2 -3.1Z" stroke="#baebaf" fill="none" stroke-width="20"></path></g><g transform="translate(678 274)"><path d="M0.3 -0.4C0.5 -0.3 0.7 -0.2 0.7 -0.1C0.8 0 0.7 0.2 0.6 0.3C0.5 0.4 0.3 0.5 0.2 0.6C0.1 0.6 -0.1 0.6 -0.2 0.6C-0.4 0.6 -0.6 0.5 -0.7 0.4C-0.8 0.2 -0.9 0 -0.8 -0.1C-0.7 -0.3 -0.6 -0.4 -0.4 -0.5C-0.3 -0.6 -0.1 -0.8 0 -0.8C0.1 -0.7 0.2 -0.6 0.3 -0.4Z" stroke="#baebaf" fill="none" stroke-width="20"></path></g><g transform="translate(112 365)"><path d="M0.2 -0.3C0.3 -0.2 0.3 -0.1 0.3 0C0.3 0 0.4 0.1 0.4 0.3C0.4 0.4 0.3 0.5 0.2 0.6C0.1 0.6 -0.1 0.6 -0.2 0.6C-0.4 0.6 -0.6 0.5 -0.6 0.4C-0.7 0.3 -0.6 0.1 -0.6 -0.1C-0.5 -0.2 -0.4 -0.3 -0.3 -0.3C-0.2 -0.4 -0.1 -0.4 0 -0.4C0.1 -0.4 0.2 -0.3 0.2 -0.3Z" stroke="#baebaf" fill="none" stroke-width="20"></path></g><g transform="translate(183 147)"><path d="M1.5 -1.7C1.8 -1.6 1.6 -0.9 1.6 -0.3C1.7 0.2 1.9 0.7 1.8 1.1C1.6 1.4 1.1 1.5 0.7 1.5C0.3 1.5 -0.1 1.3 -0.6 1.3C-1.1 1.2 -1.7 1.3 -1.9 1C-2.1 0.8 -2 0.2 -1.7 -0.1C-1.4 -0.5 -1.1 -0.7 -0.8 -0.8C-0.5 -0.9 -0.2 -0.9 0.2 -1.1C0.6 -1.4 1.3 -1.8 1.5 -1.7Z" stroke="#baebaf" fill="none" stroke-width="20"></path></g><g transform="translate(372 13)"><path d="M2.5 -2.7C3.2 -2.4 3.7 -1.6 4.1 -0.5C4.6 0.5 4.9 1.8 4.6 3C4.3 4.2 3.4 5.4 2 6.2C0.7 6.9 -1.1 7.3 -2.2 6.6C-3.4 6 -4.1 4.4 -5 2.8C-5.9 1.3 -7.1 -0.1 -6.9 -1.2C-6.7 -2.3 -4.9 -3.1 -3.6 -3.3C-2.2 -3.5 -1.1 -3.2 -0.1 -3.1C0.9 -3 1.8 -3.1 2.5 -2.7Z" stroke="#baebaf" fill="none" stroke-width="20"></path></g><g transform="translate(897 564)"><path d="M2 -2.8C2.5 -1.9 2.9 -1.2 3.4 -0.4C3.8 0.5 4.3 1.6 4.2 3.1C4.2 4.7 3.7 6.6 2.6 7C1.5 7.3 -0.1 5.9 -1.9 5.3C-3.8 4.6 -5.9 4.6 -6.4 3.7C-6.9 2.8 -5.7 1 -5.1 -0.5C-4.4 -2.1 -4.1 -3.3 -3.3 -4.3C-2.6 -5.2 -1.3 -5.8 -0.3 -5.4C0.7 -5.1 1.4 -3.8 2 -2.8Z" stroke="#baebaf" fill="none" stroke-width="20"></path></g><g transform="translate(277 192)"><path d="M3.2 -3.8C4 -3.2 4.4 -2 4.1 -1.1C3.8 -0.2 2.8 0.4 2.1 1C1.5 1.5 1.2 1.9 0.7 2.2C0.2 2.5 -0.4 2.6 -0.9 2.5C-1.4 2.3 -1.7 1.7 -2.5 1.1C-3.2 0.5 -4.3 -0.2 -4.5 -1C-4.6 -1.7 -3.7 -2.5 -2.7 -3.1C-1.8 -3.7 -0.9 -4.1 0.1 -4.3C1.2 -4.5 2.4 -4.4 3.2 -3.8Z" stroke="#baebaf" fill="none" stroke-width="20"></path></g><g transform="translate(807 392)"><path d="M3.6 -3.6C4.7 -3.3 5.7 -2.3 6.6 -0.7C7.4 0.9 8 2.9 7 3.5C6 4.2 3.5 3.4 1.9 3C0.3 2.6 -0.3 2.6 -1.8 2.9C-3.3 3.2 -5.6 3.9 -5.9 3.4C-6.2 2.9 -4.5 1.2 -3.9 -0.4C-3.3 -2 -3.8 -3.6 -3.3 -4C-2.9 -4.5 -1.4 -3.8 -0.1 -3.7C1.2 -3.6 2.4 -4 3.6 -3.6Z" stroke="#baebaf" fill="none" stroke-width="20"></path></g><g transform="translate(844 113)"><path d="M4.4 -5.3C5.7 -4 7 -2.7 6.8 -1.6C6.6 -0.4 4.8 0.7 3.6 1.4C2.4 2.2 1.8 2.6 0.8 3.5C-0.2 4.5 -1.5 6 -2.1 5.8C-2.8 5.6 -2.9 3.6 -3 2.3C-3 0.9 -3.1 0.2 -2.9 -0.4C-2.6 -1 -2.1 -1.4 -1.5 -2.7C-1 -4.1 -0.5 -6.5 0.5 -7.1C1.5 -7.7 3 -6.5 4.4 -5.3Z" stroke="#baebaf" fill="none" stroke-width="20"></path></g><g transform="translate(498 193)"><path d="M0.6 -0.7C0.7 -0.6 0.8 -0.4 0.9 -0.1C1 0.1 1.1 0.4 1.1 0.7C1 1.1 0.9 1.5 0.5 1.6C0.2 1.8 -0.2 1.7 -0.4 1.5C-0.6 1.2 -0.6 0.8 -0.8 0.4C-1 0.1 -1.4 -0.1 -1.4 -0.3C-1.5 -0.6 -1.2 -0.8 -0.9 -0.9C-0.6 -1.1 -0.3 -1.1 0 -1.1C0.2 -1 0.4 -0.9 0.6 -0.7Z" stroke="#baebaf" fill="none" stroke-width="20"></path></g><g transform="translate(816 362)"><path d="M3.7 -4.2C4.3 -3.8 4 -2.2 4.1 -0.8C4.2 0.6 4.7 1.8 4.3 2.4C3.9 3.1 2.5 3.3 1.5 3.2C0.5 3.2 -0.3 3 -1.5 3C-2.7 3 -4.5 3.3 -4.7 2.8C-5 2.2 -3.8 0.9 -3.5 -0.5C-3.1 -1.9 -3.5 -3.3 -3.1 -3.6C-2.6 -4 -1.3 -3.3 0.1 -3.4C1.5 -3.5 3 -4.5 3.7 -4.2Z" stroke="#baebaf" fill="none" stroke-width="20"></path></g><g transform="translate(579 195)"><path d="M0.3 -0.3C0.4 -0.3 0.5 -0.2 0.5 -0.1C0.5 0 0.4 0.1 0.3 0.2C0.3 0.3 0.3 0.5 0.2 0.5C0.1 0.5 0 0.4 -0.1 0.4C-0.3 0.3 -0.5 0.3 -0.6 0.3C-0.7 0.2 -0.7 0.1 -0.6 -0.1C-0.5 -0.2 -0.4 -0.2 -0.3 -0.3C-0.2 -0.3 -0.1 -0.3 0 -0.3C0.1 -0.3 0.2 -0.4 0.3 -0.3Z" stroke="#baebaf" fill="none" stroke-width="20"></path></g><g transform="translate(445 69)"><path d="M2.7 -3.2C3.7 -2.4 4.8 -1.7 4.8 -1C4.7 -0.2 3.6 0.6 2.9 1.5C2.2 2.5 2 3.7 1.4 3.9C0.8 4.1 -0.1 3.4 -0.7 2.8C-1.4 2.2 -1.8 1.8 -2.3 1.2C-2.7 0.7 -3.1 0 -3.4 -0.9C-3.6 -1.9 -3.6 -3.1 -3 -4C-2.4 -4.9 -1.2 -5.4 -0.2 -5.2C0.9 -5 1.7 -4 2.7 -3.2Z" stroke="#baebaf" fill="none" stroke-width="20"></path></g><g transform="translate(369 77)"><path d="M1.3 -1.4C1.6 -1.3 1.6 -0.8 1.5 -0.4C1.4 -0.1 1.1 0.2 1 0.7C0.8 1.2 0.9 2 0.7 2.1C0.6 2.2 0.1 1.6 -0.4 1.3C-0.8 1 -1.3 1 -1.5 0.8C-1.6 0.6 -1.4 0.2 -1.4 -0.3C-1.4 -0.9 -1.6 -1.6 -1.4 -1.7C-1.3 -1.8 -0.6 -1.4 -0.1 -1.3C0.5 -1.2 1 -1.5 1.3 -1.4Z" stroke="#baebaf" fill="none" stroke-width="20"></path></g><g transform="translate(370 281)"><path d="M0.9 -1.2C1 -1 0.9 -0.6 0.9 -0.2C1 0.1 1.1 0.4 1.1 0.7C1 1.1 0.8 1.4 0.6 1.4C0.4 1.4 0.1 1 -0.3 0.8C-0.6 0.7 -1 0.7 -1.2 0.6C-1.5 0.4 -1.6 0.1 -1.6 -0.3C-1.5 -0.7 -1.4 -1.1 -1.1 -1.3C-0.8 -1.6 -0.4 -1.7 0 -1.7C0.4 -1.7 0.8 -1.5 0.9 -1.2Z" stroke="#baebaf" fill="none" stroke-width="20"></path></g><g transform="translate(574 389)"><path d="M4.1 -5.5C5 -4.1 5.4 -2.5 5 -1.3C4.7 -0.1 3.7 0.7 3.1 1.8C2.5 2.9 2.3 4.3 1.5 5C0.6 5.8 -0.8 5.9 -2 5.5C-3.3 5.1 -4.4 4.1 -5.1 2.9C-5.8 1.8 -6 0.3 -5.7 -1C-5.5 -2.3 -4.7 -3.5 -3.6 -4.8C-2.6 -6.2 -1.3 -7.8 0.1 -7.9C1.6 -8.1 3.1 -6.8 4.1 -5.5Z" stroke="#baebaf" fill="none" stroke-width="20"></path></g><g transform="translate(703 325)"><path d="M0.3 -0.5C0.5 -0.3 0.6 -0.2 0.8 0C1 0.2 1.2 0.5 1.2 0.9C1.2 1.2 0.9 1.5 0.6 1.4C0.3 1.4 0.1 1 -0.2 0.8C-0.4 0.6 -0.6 0.5 -0.9 0.3C-1.1 0.2 -1.5 -0.1 -1.5 -0.2C-1.4 -0.4 -0.9 -0.4 -0.6 -0.6C-0.2 -0.8 -0.1 -1.1 0 -1.1C0.1 -1.1 0.2 -0.8 0.3 -0.5Z" stroke="#baebaf" fill="none" stroke-width="20"></path></g><g transform="translate(591 75)"><path d="M0.9 -1C1.2 -0.8 1.5 -0.5 1.7 -0.2C1.8 0.1 1.8 0.6 1.5 0.8C1.3 1 0.8 1.1 0.5 1C0.2 1 0 0.9 -0.4 0.8C-0.7 0.8 -1.2 0.9 -1.4 0.7C-1.7 0.5 -1.8 0.1 -1.8 -0.3C-1.7 -0.8 -1.5 -1.2 -1.2 -1.4C-0.9 -1.7 -0.4 -1.7 -0.1 -1.6C0.3 -1.5 0.5 -1.2 0.9 -1Z" stroke="#baebaf" fill="none" stroke-width="20"></path></g><g transform="translate(551 98)"><path d="M0.9 -1C1 -0.9 0.9 -0.5 0.9 -0.2C0.9 0.1 1 0.4 1 0.6C0.9 0.9 0.7 1.1 0.4 1.2C0.1 1.3 -0.2 1.4 -0.4 1.3C-0.7 1.2 -0.9 0.9 -0.9 0.6C-1 0.4 -0.9 0.1 -0.8 -0.1C-0.8 -0.4 -0.8 -0.7 -0.7 -0.8C-0.5 -0.9 -0.3 -0.8 0.1 -0.8C0.4 -0.9 0.8 -1.1 0.9 -1Z" stroke="#baebaf" fill="none" stroke-width="20"></path></g><g transform="translate(523 248)"><path d="M2.9 -3.6C3.6 -2.8 4.1 -1.8 5.1 -0.3C6 1.2 7.6 3.2 7.1 4.1C6.6 4.9 4.1 4.6 2.4 4.3C0.7 3.9 -0.2 3.5 -1.3 3.2C-2.5 3 -3.8 3 -5.3 2.2C-6.7 1.4 -8.3 -0.2 -8 -1.4C-7.8 -2.6 -5.7 -3.5 -4.1 -4.1C-2.5 -4.7 -1.2 -5.1 -0.1 -5C1.1 -4.9 2.1 -4.3 2.9 -3.6Z" stroke="#baebaf" fill="none" stroke-width="20"></path></g><g transform="translate(424 439)"><path d="M3.2 -4.1C4.5 -2.7 6.1 -2 6.2 -1.1C6.3 -0.2 4.9 0.9 4.2 2.7C3.5 4.4 3.4 6.8 2.4 7.6C1.4 8.4 -0.6 7.7 -2 6.7C-3.5 5.7 -4.4 4.4 -5.2 3C-6 1.7 -6.6 0.2 -6.3 -1C-6 -2.3 -4.8 -3.3 -3.6 -4.7C-2.4 -6.2 -1.2 -8 -0.1 -7.8C0.9 -7.7 1.9 -5.5 3.2 -4.1Z" stroke="#baebaf" fill="none" stroke-width="20"></path></g><g transform="translate(225 498)"><path d="M2.7 -3.3C3 -2.9 2.5 -1.6 2.4 -0.6C2.3 0.3 2.6 1 2.4 1.4C2.2 1.8 1.5 1.9 0.9 1.9C0.3 1.9 -0.1 1.8 -0.7 1.7C-1.2 1.5 -1.8 1.4 -2.2 1.1C-2.7 0.7 -3 0.1 -3.1 -0.8C-3.2 -1.6 -3.1 -2.6 -2.5 -3C-2 -3.4 -1 -3.2 0.1 -3.3C1.2 -3.4 2.3 -3.8 2.7 -3.3Z" stroke="#baebaf" fill="none" stroke-width="20"></path></g><g transform="translate(279 116)"><path d="M1.4 -1.4C1.8 -1.3 2.2 -0.9 2.1 -0.5C2 -0.1 1.5 0.2 1.1 0.4C0.7 0.7 0.6 0.9 0.3 0.9C0.1 1 -0.1 1 -0.6 1.1C-1 1.1 -1.7 1.2 -2 1C-2.4 0.7 -2.5 0.1 -2.4 -0.5C-2.4 -1.1 -2.1 -1.7 -1.7 -1.8C-1.3 -1.9 -0.6 -1.6 -0.1 -1.5C0.5 -1.4 1 -1.5 1.4 -1.4Z" stroke="#baebaf" fill="none" stroke-width="20"></path></g><g transform="translate(93 270)"><path d="M3.5 -3C5.3 -2.6 8.1 -2.3 8.8 -1.1C9.6 0.1 8.3 2 7.1 4.1C5.9 6.1 4.8 8.2 3.4 8.1C2 8.1 0.3 5.9 -0.8 4.5C-2 3.1 -2.6 2.5 -4 1.6C-5.5 0.6 -7.8 -0.6 -8.5 -2.4C-9.3 -4.2 -8.4 -6.5 -6.7 -6.9C-5 -7.3 -2.5 -5.8 -0.8 -4.8C0.8 -3.8 1.6 -3.4 3.5 -3Z" stroke="#baebaf" fill="none" stroke-width="20"></path></g><g transform="translate(79 533)"><path d="M0.6 -0.7C0.8 -0.5 1 -0.4 1.1 -0.2C1.1 0 1 0.2 0.8 0.4C0.7 0.6 0.5 0.8 0.3 0.8C0.1 0.8 0 0.7 -0.2 0.6C-0.3 0.5 -0.4 0.4 -0.6 0.2C-0.8 0.1 -1.1 -0.1 -1.2 -0.4C-1.4 -0.7 -1.3 -1.1 -1.1 -1.2C-0.8 -1.4 -0.4 -1.2 -0.1 -1.1C0.2 -0.9 0.4 -0.8 0.6 -0.7Z" stroke="#baebaf" fill="none" stroke-width="20"></path></g><g transform="translate(468 393)"><path d="M2.7 -3.1C3.9 -2.2 5.5 -1.7 5.9 -0.9C6.3 0 5.3 1.3 4.7 3C4 4.7 3.6 6.8 2.5 7.4C1.4 8 -0.4 7 -2.1 6.2C-3.8 5.4 -5.5 4.7 -5.8 3.6C-6.1 2.5 -5.1 0.9 -4.8 -0.9C-4.6 -2.6 -5 -4.5 -4.3 -5.5C-3.6 -6.5 -1.8 -6.5 -0.5 -5.9C0.7 -5.3 1.5 -4 2.7 -3.1Z" stroke="#baebaf" fill="none" stroke-width="20"></path></g><g transform="translate(616 500)"><path d="M3.1 -3.6C3.6 -3.2 3.3 -1.9 3.6 -0.6C3.9 0.8 4.8 2 4.6 3C4.4 3.9 3.1 4.4 1.9 4.5C0.7 4.6 -0.4 4.3 -0.9 3.6C-1.5 3 -1.6 1.9 -1.7 1.2C-1.8 0.5 -2.1 0 -2 -0.4C-2 -0.8 -1.6 -1.1 -1.2 -1.5C-0.8 -1.9 -0.4 -2.4 0.4 -2.9C1.3 -3.4 2.6 -4 3.1 -3.6Z" stroke="#baebaf" fill="none" stroke-width="20"></path></g><g transform="translate(12 68)"><path d="M2 -2.8C2.3 -2 2.2 -1.2 2.1 -0.5C2 0.1 1.9 0.6 1.9 1.5C1.9 2.5 1.9 3.9 1.5 4.1C1 4.3 0.1 3.3 -0.9 2.8C-1.9 2.3 -2.9 2.3 -3.2 1.8C-3.5 1.4 -3.1 0.5 -3.1 -0.7C-3.1 -1.9 -3.6 -3.4 -3.1 -4.2C-2.7 -4.9 -1.4 -5 -0.3 -4.7C0.8 -4.4 1.6 -3.6 2 -2.8Z" stroke="#baebaf" fill="none" stroke-width="20"></path></g><g transform="translate(129 303)"><path d="M0.4 -0.4C0.5 -0.4 0.7 -0.3 0.8 -0.1C0.8 0.1 0.8 0.3 0.7 0.4C0.6 0.6 0.5 0.8 0.3 0.8C0.1 0.9 -0.1 0.9 -0.3 0.8C-0.4 0.7 -0.5 0.5 -0.6 0.3C-0.7 0.2 -0.8 0 -0.8 -0.1C-0.7 -0.3 -0.6 -0.3 -0.4 -0.4C-0.2 -0.4 -0.1 -0.3 0 -0.3C0.1 -0.4 0.3 -0.4 0.4 -0.4Z" stroke="#baebaf" fill="none" stroke-width="20"></path></g><g transform="translate(882 368)"><path d="M0.8 -1.2C1 -0.8 1.1 -0.5 1.2 -0.2C1.3 0.1 1.3 0.5 1.3 0.9C1.2 1.3 1 1.8 0.7 1.9C0.3 2.1 -0.2 2 -0.7 1.9C-1.2 1.7 -1.7 1.5 -2 1.1C-2.2 0.7 -2.3 0.1 -2.2 -0.3C-2 -0.8 -1.6 -1.1 -1.2 -1.6C-0.8 -2 -0.4 -2.5 -0.1 -2.4C0.3 -2.3 0.6 -1.7 0.8 -1.2Z" stroke="#baebaf" fill="none" stroke-width="20"></path></g><g transform="translate(198 361)"><path d="M2.6 -2.9C3.3 -2.6 3.7 -1.6 4.4 -0.3C5.2 0.9 6.3 2.6 5.9 3.5C5.5 4.4 3.6 4.5 2.1 4.3C0.7 4.1 -0.2 3.7 -1 3.2C-1.8 2.8 -2.5 2.3 -2.9 1.7C-3.2 1 -3.3 0.2 -3.7 -1.2C-4.1 -2.5 -4.7 -4.5 -4.2 -4.9C-3.6 -5.3 -1.8 -4.1 -0.4 -3.7C1 -3.2 1.9 -3.3 2.6 -2.9Z" stroke="#baebaf" fill="none" stroke-width="20"></path></g><g transform="translate(388 426)"><path d="M1 -1.3C1.4 -0.8 1.9 -0.6 2.4 -0.1C2.8 0.4 3.1 1.2 2.9 1.8C2.7 2.3 1.9 2.6 1.1 2.8C0.3 3 -0.4 3.1 -0.9 2.8C-1.4 2.5 -1.7 1.8 -1.7 1.2C-1.8 0.7 -1.7 0.2 -1.8 -0.5C-1.9 -1.2 -2.2 -2.1 -1.9 -2.6C-1.7 -3.2 -0.8 -3.4 -0.3 -3C0.3 -2.7 0.6 -1.9 1 -1.3Z" stroke="#baebaf" fill="none" stroke-width="20"></path></g><g transform="translate(458 521)"><path d="M3.8 -5.4C4.3 -4.1 3.7 -2.3 3.3 -1.1C3 0.1 2.8 0.8 2.7 2.1C2.6 3.3 2.6 5.1 1.8 5.7C1 6.4 -0.5 5.9 -1.9 5.3C-3.3 4.7 -4.6 4 -5.1 3C-5.7 2 -5.4 0.5 -4.9 -0.6C-4.3 -1.6 -3.4 -2.3 -2.6 -3.6C-1.7 -4.9 -0.9 -6.7 0.4 -7.2C1.6 -7.7 3.3 -6.7 3.8 -5.4Z" stroke="#baebaf" fill="none" stroke-width="20"></path></g><g transform="translate(225 52)"><path d="M2.6 -3.2C3.2 -2.5 3.4 -1.6 3.6 -0.6C3.9 0.4 4 1.4 3.8 2.6C3.6 3.8 3 5.3 1.8 6.2C0.6 7.2 -1.2 7.8 -2.7 7.3C-4.2 6.8 -5.3 5.3 -6.1 3.7C-6.9 2 -7.4 0.3 -6.9 -1C-6.5 -2.3 -5 -3.3 -3.7 -3.9C-2.4 -4.5 -1.2 -4.7 -0.1 -4.6C1 -4.4 1.9 -3.9 2.6 -3.2Z" stroke="#baebaf" fill="none" stroke-width="20"></path></g><g transform="translate(749 492)"><path d="M1.9 -2.7C2.4 -1.9 2.6 -1.2 3.4 -0.1C4.1 0.9 5.4 2.4 5.3 3.5C5.2 4.5 3.7 5.2 2.3 5.2C1 5.2 -0.2 4.4 -1.4 4C-2.7 3.5 -4 3.3 -4.1 2.6C-4.3 1.9 -3.3 0.7 -3.2 -0.7C-3.1 -2.1 -3.9 -3.9 -3.5 -4.7C-3.1 -5.6 -1.6 -5.5 -0.4 -5C0.7 -4.5 1.4 -3.5 1.9 -2.7Z" stroke="#baebaf" fill="none" stroke-width="20"></path></g><g transform="translate(94 413)"><path d="M6.4 -6.8C8.1 -6.2 9.2 -4 8.6 -2.3C8 -0.6 5.7 0.7 4.6 2.7C3.5 4.7 3.6 7.5 2.5 8.9C1.3 10.2 -1.2 10.1 -2.8 9C-4.5 7.9 -5.4 5.7 -6.1 3.8C-6.8 1.9 -7.4 0.3 -7.4 -1.6C-7.5 -3.5 -6.9 -5.6 -5.6 -6.2C-4.3 -6.8 -2.1 -6 0.1 -6.2C2.3 -6.3 4.7 -7.3 6.4 -6.8Z" stroke="#baebaf" fill="none" stroke-width="20"></path></g><g transform="translate(312 18)"><path d="M2.2 -3C3.2 -1.9 4.4 -1.4 5.1 -0.5C5.7 0.4 5.6 1.8 4.9 2.7C4.2 3.5 2.8 3.8 1.8 3.5C0.7 3.3 0 2.6 -0.7 2.2C-1.5 1.9 -2.3 1.8 -3 1.4C-3.6 1 -4 0.1 -4.3 -1.1C-4.5 -2.3 -4.5 -3.9 -3.8 -5.1C-3 -6.2 -1.5 -7 -0.4 -6.5C0.6 -6 1.3 -4.1 2.2 -3Z" stroke="#baebaf" fill="none" stroke-width="20"></path></g><g transform="translate(154 451)"><path d="M1.5 -2.1C1.8 -1.7 1.6 -0.9 1.5 -0.4C1.4 0.1 1.4 0.5 1.3 0.8C1.2 1.1 0.9 1.4 0.4 1.8C0 2.1 -0.6 2.7 -1.2 2.7C-1.7 2.7 -2.3 2.2 -2.6 1.5C-3 0.9 -3.2 0.1 -3.2 -0.7C-3.3 -1.6 -3.1 -2.6 -2.6 -3C-2 -3.4 -1 -3.1 -0.2 -2.9C0.7 -2.7 1.3 -2.5 1.5 -2.1Z" stroke="#baebaf" fill="none" stroke-width="20"></path></g><g transform="translate(605 553)"><path d="M3.1 -3.2C4.2 -2.7 5.6 -1.9 6.3 -0.7C6.9 0.5 6.9 2.2 5.9 2.8C4.9 3.4 2.9 2.9 1.3 3.6C-0.4 4.2 -1.6 6 -2.7 6.1C-3.7 6.2 -4.6 4.7 -5.1 3.2C-5.6 1.8 -5.7 0.4 -5.2 -0.7C-4.7 -1.7 -3.7 -2.4 -2.7 -3C-1.8 -3.6 -0.9 -4.1 0 -4.1C0.9 -4.1 1.9 -3.8 3.1 -3.2Z" stroke="#baebaf" fill="none" stroke-width="20"></path></g><g transform="translate(296 583)"><path d="M2 -2.2C2.5 -1.9 2.8 -1.2 3.1 -0.4C3.3 0.4 3.6 1.3 3.3 2C3 2.7 2.2 3.1 1.3 3.3C0.5 3.4 -0.3 3.3 -0.8 2.8C-1.2 2.3 -1.2 1.5 -1.8 0.9C-2.3 0.2 -3.3 -0.3 -3.5 -0.9C-3.7 -1.5 -3.1 -2.3 -2.4 -2.5C-1.7 -2.8 -0.9 -2.6 -0.1 -2.5C0.7 -2.4 1.4 -2.5 2 -2.2Z" stroke="#baebaf" fill="none" stroke-width="20"></path></g><g transform="translate(544 214)"><path d="M1.5 -1.7C2.2 -1.3 3 -1 2.9 -0.6C2.8 -0.3 1.9 0.1 1.4 0.6C0.9 1.1 0.8 1.6 0.6 1.8C0.3 1.9 -0.1 1.7 -0.8 1.6C-1.4 1.6 -2.3 1.7 -2.6 1.4C-3 1.1 -2.7 0.3 -2.3 -0.2C-2 -0.8 -1.6 -1.1 -1.2 -1.5C-0.8 -1.9 -0.4 -2.4 0 -2.5C0.5 -2.5 0.9 -2.1 1.5 -1.7Z" stroke="#baebaf" fill="none" stroke-width="20"></path></g><g transform="translate(401 9)"><path d="M0.9 -1.3C1 -0.9 1 -0.5 1 -0.2C1 0.1 1 0.3 0.9 0.5C0.8 0.7 0.5 0.7 0.3 0.8C0.1 0.8 -0.1 0.7 -0.5 0.8C-0.9 0.9 -1.6 1.1 -1.7 1C-1.8 0.8 -1.3 0.3 -1.2 -0.2C-1 -0.6 -1.2 -1.1 -1.1 -1.5C-0.9 -1.9 -0.5 -2.2 -0.1 -2.2C0.3 -2.1 0.7 -1.7 0.9 -1.3Z" stroke="#baebaf" fill="none" stroke-width="20"></path></g><g transform="translate(103 471)"><path d="M6.5 -7.5C7.9 -6.5 8.3 -4 8.3 -1.8C8.2 0.4 7.8 2.3 6.6 3.1C5.3 3.9 3.2 3.5 1.6 3.9C-0.1 4.3 -1.3 5.6 -3 6C-4.7 6.3 -6.8 5.7 -8.1 4.3C-9.3 2.8 -9.7 0.5 -8.7 -0.9C-7.8 -2.4 -5.4 -3.1 -3.7 -4.1C-2.1 -5.1 -1 -6.4 0.7 -7.3C2.5 -8.2 5 -8.6 6.5 -7.5Z" stroke="#baebaf" fill="none" stroke-width="20"></path></g><g transform="translate(189 331)"><path d="M0.8 -0.9C1 -0.8 1.1 -0.5 1.2 -0.2C1.2 0.1 1.1 0.4 1 0.6C0.9 0.9 0.7 1.1 0.4 1.2C0.2 1.3 -0.1 1.2 -0.5 1.2C-0.9 1.1 -1.3 1.1 -1.5 0.8C-1.7 0.6 -1.7 0.1 -1.6 -0.3C-1.6 -0.7 -1.4 -1.1 -1.1 -1.2C-0.8 -1.3 -0.4 -1.3 -0.1 -1.2C0.3 -1.1 0.6 -1.1 0.8 -0.9Z" stroke="#baebaf" fill="none" stroke-width="20"></path></g><g transform="translate(888 7)"><path d="M1.3 -1.2C1.8 -1.1 2.3 -0.8 2.4 -0.4C2.5 -0.1 2 0.4 1.6 0.8C1.2 1.2 0.9 1.5 0.6 1.5C0.3 1.5 0 1.3 -0.4 1.1C-0.8 1 -1.2 0.9 -1.5 0.7C-1.8 0.5 -2 0 -2 -0.5C-2 -1 -1.9 -1.5 -1.5 -1.7C-1.2 -1.8 -0.6 -1.5 -0.1 -1.4C0.4 -1.3 0.8 -1.3 1.3 -1.2Z" stroke="#baebaf" fill="none" stroke-width="20"></path></g><g transform="translate(428 558)"><path d="M2.9 -3.5C3.5 -3 3.4 -1.8 3.4 -0.8C3.3 0.3 3.4 1.2 3.2 2.1C2.9 2.9 2.3 3.9 1.5 4.3C0.6 4.7 -0.5 4.5 -1 3.9C-1.6 3.2 -1.5 2 -1.5 1.3C-1.5 0.5 -1.6 0.1 -1.9 -0.7C-2.2 -1.5 -2.7 -2.7 -2.4 -3.2C-2.2 -3.7 -1.1 -3.5 0.1 -3.5C1.2 -3.6 2.4 -3.9 2.9 -3.5Z" stroke="#baebaf" fill="none" stroke-width="20"></path></g><g transform="translate(560 566)"><path d="M3.3 -3.7C4.6 -2.9 6.1 -2.1 6 -1.3C5.8 -0.5 4 0.4 3.1 1.5C2.1 2.6 2 4 1.2 4.9C0.4 5.9 -1.1 6.5 -2.4 6.2C-3.7 5.8 -4.7 4.6 -5.7 3.2C-6.7 1.7 -7.7 0.1 -7.4 -1.3C-7.2 -2.7 -5.7 -3.9 -4.3 -4.7C-2.9 -5.4 -1.4 -5.6 -0.2 -5.3C1 -5.1 2.1 -4.4 3.3 -3.7Z" stroke="#baebaf" fill="none" stroke-width="20"></path></g><g transform="translate(16 437)"><path d="M3.4 -4.1C4 -3.6 3.8 -2.1 3.6 -0.9C3.5 0.2 3.5 1.1 3.2 2C2.9 2.9 2.3 3.8 1.6 3.9C0.9 3.9 0 3.1 -0.6 2.5C-1.2 1.9 -1.6 1.5 -2.3 1C-2.9 0.5 -3.9 -0.2 -3.7 -0.6C-3.6 -1 -2.4 -1.2 -1.6 -1.7C-0.8 -2.2 -0.4 -2.9 0.5 -3.5C1.4 -4.1 2.9 -4.6 3.4 -4.1Z" stroke="#baebaf" fill="none" stroke-width="20"></path></g><g transform="translate(125 148)"><path d="M4.5 -5.3C5.5 -4.5 5.8 -2.8 5.4 -1.4C5.1 -0.1 4.1 0.8 3.5 2.1C2.9 3.4 2.6 5 1.7 5.9C0.7 6.8 -0.9 7 -2.4 6.5C-3.8 6 -5 4.8 -5.1 3.5C-5.1 2.2 -4.1 0.8 -3.6 -0.4C-3.1 -1.7 -3.2 -2.8 -2.7 -3.7C-2.2 -4.6 -1.1 -5.3 0.3 -5.7C1.7 -6.1 3.5 -6.1 4.5 -5.3Z" stroke="#baebaf" fill="none" stroke-width="20"></path></g><g transform="translate(194 519)"><path d="M1.6 -1.5C2.2 -1.3 3.1 -1 3.4 -0.4C3.8 0.2 3.6 1.1 3.1 1.7C2.6 2.3 1.8 2.6 1 3C0.1 3.4 -0.8 4 -1.3 3.8C-1.8 3.5 -1.9 2.3 -2.4 1.4C-2.9 0.5 -3.8 -0.1 -3.6 -0.6C-3.5 -1 -2.3 -1.2 -1.5 -1.4C-0.7 -1.5 -0.4 -1.8 0 -1.8C0.5 -1.9 0.9 -1.7 1.6 -1.5Z" stroke="#baebaf" fill="none" stroke-width="20"></path></g><g transform="translate(794 249)"><path d="M3.8 -5.2C4.6 -3.9 4.7 -2.4 5.1 -0.8C5.5 0.8 6.3 2.4 5.7 3.2C5.2 4 3.3 3.9 1.8 3.8C0.4 3.8 -0.5 3.8 -1.5 3.7C-2.6 3.5 -3.7 3.2 -4.9 2.3C-6.2 1.4 -7.4 -0.1 -7.5 -1.6C-7.6 -3.2 -6.5 -4.8 -5 -6C-3.6 -7.2 -1.8 -8 -0.1 -7.9C1.5 -7.7 3 -6.6 3.8 -5.2Z" stroke="#baebaf" fill="none" stroke-width="20"></path></g><g transform="translate(67 404)"><path d="M4.9 -5.3C6.6 -4.5 8.1 -3.1 8.5 -1.4C8.9 0.3 8.2 2.3 7 3.7C5.8 5.1 4.1 6 2.3 6.8C0.6 7.6 -1.4 8.3 -2.2 7.4C-3 6.5 -2.7 4 -2.8 2.3C-2.8 0.7 -3.2 0 -3.2 -0.6C-3.1 -1.3 -2.6 -1.9 -2 -2.8C-1.4 -3.7 -0.7 -4.9 0.5 -5.5C1.7 -6.1 3.3 -6 4.9 -5.3Z" stroke="#baebaf" fill="none" stroke-width="20"></path></g><g transform="translate(311 317)"><path d="M3.2 -4C4.3 -2.8 5.6 -2 6.3 -0.7C7 0.6 7.2 2.4 6.4 3.5C5.6 4.6 3.7 4.9 2 5.4C0.3 5.9 -1.2 6.7 -2.3 6.3C-3.5 5.9 -4.2 4.4 -4.6 3C-5 1.6 -5 0.4 -4.7 -0.7C-4.4 -1.8 -3.7 -2.7 -2.9 -4C-2.1 -5.2 -1 -6.7 0 -6.7C1 -6.7 2 -5.2 3.2 -4Z" stroke="#baebaf" fill="none" stroke-width="20"></path></g><g transform="translate(74 454)"><path d="M2.8 -3.7C3.9 -2.4 5.3 -1.8 5.7 -0.9C6 0.1 5.3 1.4 4.4 2.1C3.4 2.7 2.2 2.8 1.1 3.2C0 3.7 -0.9 4.5 -1.7 4.4C-2.5 4.3 -3.1 3.2 -3.4 2.2C-3.8 1.2 -3.9 0.2 -4 -1C-4.1 -2.2 -4.2 -3.6 -3.5 -5C-2.9 -6.4 -1.4 -7.8 -0.3 -7.4C0.8 -7 1.7 -5 2.8 -3.7Z" stroke="#baebaf" fill="none" stroke-width="20"></path></g><g transform="translate(691 149)"><path d="M3.8 -4.1C4.6 -3.8 4.7 -2.3 4.9 -0.9C5 0.5 5.2 1.8 4.7 2.6C4.1 3.5 2.8 3.8 1.6 4C0.5 4.2 -0.6 4.3 -1.4 3.9C-2.2 3.5 -2.7 2.7 -3.1 1.9C-3.5 1.1 -3.7 0.2 -3.4 -0.5C-3.1 -1.1 -2.4 -1.6 -1.8 -1.9C-1.1 -2.2 -0.6 -2.4 0.5 -2.9C1.5 -3.5 3 -4.4 3.8 -4.1Z" stroke="#baebaf" fill="none" stroke-width="20"></path></g><g transform="translate(148 402)"><path d="M5.5 -5.8C7.2 -5.2 8.6 -3.5 9.1 -1.5C9.5 0.5 9 2.7 7.6 3.6C6.2 4.6 3.8 4.3 1.8 5C-0.1 5.7 -1.7 7.4 -3.1 7.4C-4.4 7.4 -5.5 5.6 -6.1 3.9C-6.7 2.2 -6.7 0.5 -6.8 -1.7C-7 -3.8 -7.3 -6.4 -6.2 -7.2C-5.1 -7.9 -2.5 -6.8 -0.3 -6.4C1.9 -6.1 3.8 -6.5 5.5 -5.8Z" stroke="#baebaf" fill="none" stroke-width="20"></path></g><g transform="translate(234 149)"><path d="M0.5 -0.5C0.6 -0.5 0.7 -0.3 0.7 -0.1C0.7 0 0.7 0.2 0.6 0.4C0.5 0.5 0.4 0.6 0.3 0.6C0.1 0.6 0 0.4 -0.1 0.3C-0.2 0.3 -0.3 0.3 -0.4 0.2C-0.5 0.2 -0.5 0 -0.5 -0.1C-0.5 -0.3 -0.6 -0.5 -0.5 -0.6C-0.4 -0.6 -0.2 -0.6 0 -0.6C0.2 -0.6 0.3 -0.6 0.5 -0.5Z" stroke="#baebaf" fill="none" stroke-width="20"></path></g><g transform="translate(410 399)"><path d="M5.7 -7.1C7.4 -5.4 8.8 -3.6 8.6 -1.9C8.5 -0.2 6.8 1.4 5.3 2.3C3.9 3.2 2.6 3.5 1.3 4.3C0 5.2 -1.5 6.5 -2.5 6.4C-3.5 6.2 -4.1 4.4 -5.1 2.8C-6.2 1.3 -7.7 -0.2 -7.7 -1.5C-7.7 -2.9 -6.1 -4.1 -4.5 -5.8C-3 -7.5 -1.5 -9.6 0.3 -9.9C2 -10.2 4 -8.7 5.7 -7.1Z" stroke="#baebaf" fill="none" stroke-width="20"></path></g><g transform="translate(308 187)"><path d="M1.1 -1.3C1.2 -1.1 1.1 -0.7 1.2 -0.2C1.2 0.2 1.5 0.6 1.3 0.8C1.2 0.9 0.8 0.9 0.4 1.1C-0.1 1.4 -0.4 1.8 -0.7 1.8C-1 1.8 -1.2 1.3 -1.2 0.9C-1.2 0.5 -1 0.2 -0.9 -0.1C-0.8 -0.5 -0.9 -0.8 -0.7 -0.9C-0.6 -1.1 -0.3 -1.1 0.1 -1.2C0.5 -1.3 0.9 -1.5 1.1 -1.3Z" stroke="#baebaf" fill="none" stroke-width="20"></path></g><g transform="translate(465 104)"><path d="M3.3 -4.5C4 -3.3 4.2 -2.1 4.6 -0.6C5.1 0.8 5.9 2.3 5.5 3.3C5.1 4.3 3.5 4.7 2.1 4.8C0.7 4.9 -0.5 4.8 -1.3 4.2C-2.2 3.7 -2.7 2.7 -2.8 1.9C-2.9 1.1 -2.7 0.3 -2.4 -0.3C-2.1 -0.9 -1.9 -1.4 -1.5 -2.6C-1.1 -3.8 -0.5 -5.7 0.4 -6.2C1.3 -6.6 2.6 -5.6 3.3 -4.5Z" stroke="#baebaf" fill="none" stroke-width="20"></path></g><g transform="translate(124 532)"><path d="M1.2 -1.4C1.6 -1 2.1 -0.7 2.3 -0.3C2.5 0.1 2.3 0.7 2.2 1.5C2 2.3 1.8 3.4 1.2 3.8C0.6 4.3 -0.4 4.1 -1.3 3.7C-2.2 3.3 -2.9 2.7 -3 2C-3.2 1.3 -2.6 0.5 -2.4 -0.3C-2.1 -1.1 -2.2 -1.9 -1.8 -2.3C-1.5 -2.7 -0.7 -2.7 -0.2 -2.5C0.4 -2.3 0.7 -1.8 1.2 -1.4Z" stroke="#baebaf" fill="none" stroke-width="20"></path></g><g transform="translate(876 421)"><path d="M2.2 -2.6C2.6 -2.3 2.6 -1.4 2.5 -0.6C2.4 0.1 2.3 0.7 2.1 1.4C1.9 2.1 1.6 3 0.9 3.7C0.2 4.5 -0.9 5.2 -1.5 4.7C-2.1 4.2 -2 2.7 -2.7 1.5C-3.4 0.4 -4.9 -0.4 -4.9 -1C-4.9 -1.6 -3.5 -2 -2.4 -2.2C-1.4 -2.5 -0.7 -2.4 0.1 -2.6C0.9 -2.7 1.8 -2.9 2.2 -2.6Z" stroke="#baebaf" fill="none" stroke-width="20"></path></g><g transform="translate(64 97)"><path d="M1.9 -2.5C2.2 -1.9 2.1 -1.1 2.1 -0.5C2.2 0.2 2.3 0.8 2.3 1.7C2.2 2.5 1.9 3.5 1.2 4C0.6 4.5 -0.5 4.4 -1.2 3.9C-1.8 3.4 -2 2.3 -2.2 1.5C-2.4 0.7 -2.5 0.1 -2.4 -0.4C-2.2 -0.8 -1.7 -1.2 -1.3 -1.7C-0.8 -2.3 -0.4 -3 0.2 -3.2C0.8 -3.4 1.5 -3.1 1.9 -2.5Z" stroke="#baebaf" fill="none" stroke-width="20"></path></g><g transform="translate(308 257)"><path d="M1.8 -2.7C2.2 -1.9 2.1 -1.1 2.4 -0.3C2.7 0.5 3.4 1.5 3.2 1.9C3 2.3 1.9 2.2 1.1 2.2C0.2 2.2 -0.3 2.3 -0.7 2.1C-1.1 1.8 -1.3 1.4 -2.1 0.8C-3 0.2 -4.4 -0.4 -4.6 -1C-4.7 -1.7 -3.6 -2.3 -2.7 -3C-1.7 -3.6 -0.8 -4.2 0 -4.2C0.8 -4.1 1.5 -3.4 1.8 -2.7Z" stroke="#baebaf" fill="none" stroke-width="20"></path></g><g transform="translate(729 321)"><path d="M1.1 -1.5C1.5 -1 2 -0.7 2.4 -0.2C2.7 0.3 3 1.1 2.6 1.4C2.3 1.7 1.4 1.6 0.7 1.9C-0.1 2.2 -0.7 2.8 -1.3 2.9C-1.9 2.9 -2.4 2.3 -2.5 1.7C-2.5 1.1 -2 0.4 -1.8 -0.2C-1.6 -0.9 -1.7 -1.5 -1.4 -2C-1.2 -2.5 -0.6 -2.9 -0.1 -2.8C0.4 -2.7 0.7 -2 1.1 -1.5Z" stroke="#baebaf" fill="none" stroke-width="20"></path></g><g transform="translate(621 79)"><path d="M4.9 -5C6.2 -4.7 7.1 -3.1 7.5 -1.3C7.9 0.6 7.8 2.5 6.7 3.5C5.7 4.5 3.7 4.5 2 4.9C0.2 5.4 -1.2 6.2 -2.1 5.9C-3.1 5.5 -3.7 4 -4 2.7C-4.3 1.4 -4.4 0.3 -4.1 -0.6C-3.9 -1.6 -3.2 -2.3 -2.5 -2.7C-1.7 -3 -0.9 -2.9 0.5 -3.5C1.8 -4 3.6 -5.2 4.9 -5Z" stroke="#baebaf" fill="none" stroke-width="20"></path></g><g transform="translate(812 568)"><path d="M0.4 -0.4C0.6 -0.4 0.7 -0.3 0.8 -0.1C0.8 0 0.7 0.2 0.6 0.3C0.5 0.5 0.4 0.7 0.2 0.7C0.1 0.8 -0.1 0.8 -0.3 0.7C-0.4 0.7 -0.6 0.6 -0.6 0.4C-0.6 0.3 -0.5 0.1 -0.4 -0.1C-0.4 -0.3 -0.5 -0.5 -0.4 -0.5C-0.4 -0.6 -0.2 -0.5 0 -0.4C0.1 -0.4 0.3 -0.4 0.4 -0.4Z" stroke="#baebaf" fill="none" stroke-width="20"></path></g><g transform="translate(173 111)"><path d="M5.4 -6.8C6.7 -5.3 7.2 -3.3 7.6 -1.3C8 0.7 8.2 2.8 7.3 4.1C6.4 5.5 4.5 6.2 2.6 6.7C0.7 7.2 -1 7.4 -2.5 6.9C-3.9 6.3 -5 4.9 -6.1 3.3C-7.3 1.8 -8.5 0 -8.2 -1.4C-7.8 -2.8 -5.9 -3.8 -4.3 -5.2C-2.7 -6.7 -1.4 -8.5 0.3 -8.9C2 -9.3 4.1 -8.3 5.4 -6.8Z" stroke="#baebaf" fill="none" stroke-width="20"></path></g><g transform="translate(389 536)"><path d="M1.3 -1.7C1.4 -1.4 1.1 -0.8 1.2 -0.2C1.2 0.3 1.7 0.8 1.6 0.9C1.5 1.1 0.9 0.9 0.4 1.1C-0.1 1.4 -0.5 1.9 -0.8 2C-1.2 2 -1.4 1.5 -1.5 1C-1.5 0.6 -1.4 0.2 -1.2 -0.1C-1 -0.4 -0.8 -0.5 -0.6 -0.8C-0.4 -1.1 -0.2 -1.5 0.2 -1.7C0.6 -2 1.2 -2 1.3 -1.7Z" stroke="#baebaf" fill="none" stroke-width="20"></path></g><g transform="translate(8 523)"><path d="M3.7 -4.2C4.7 -3.5 5.5 -2.3 5.5 -1.1C5.5 0 4.7 1.1 3.8 1.8C3 2.6 2.1 2.9 1.3 2.8C0.6 2.7 -0.1 2.3 -1.2 2.3C-2.3 2.3 -3.9 2.7 -4.3 2.3C-4.7 1.9 -3.8 0.7 -3.1 0C-2.4 -0.8 -1.8 -1.1 -1.3 -2C-0.8 -2.8 -0.4 -4.2 0.5 -4.8C1.3 -5.3 2.6 -5 3.7 -4.2Z" stroke="#baebaf" fill="none" stroke-width="20"></path></g><g transform="translate(422 250)"><path d="M2.7 -3.4C3.6 -2.4 4.6 -1.7 5.1 -0.6C5.7 0.5 5.8 2 5.2 3C4.6 4.1 3.3 4.8 1.9 5.4C0.4 6.1 -1.1 6.7 -1.8 6C-2.5 5.3 -2.3 3.3 -3.3 1.8C-4.2 0.3 -6.3 -0.6 -6.7 -1.7C-7.1 -2.8 -5.9 -4.2 -4.5 -5.1C-3.1 -6 -1.6 -6.5 -0.3 -6.1C0.9 -5.7 1.8 -4.4 2.7 -3.4Z" stroke="#baebaf" fill="none" stroke-width="20"></path></g><g transform="translate(822 12)"><path d="M2.9 -3.5C3.4 -3 3.3 -1.8 3.3 -0.7C3.4 0.4 3.6 1.3 3.4 2.3C3.2 3.3 2.6 4.4 1.8 4.5C1 4.6 0 3.7 -0.7 3C-1.4 2.3 -1.8 1.8 -2.3 1.2C-2.9 0.6 -3.6 -0.1 -3.7 -0.8C-3.8 -1.6 -3.2 -2.4 -2.5 -2.9C-1.8 -3.4 -0.9 -3.6 0.1 -3.8C1.2 -3.9 2.3 -4 2.9 -3.5Z" stroke="#baebaf" fill="none" stroke-width="20"></path></g><g transform="translate(29 489)"><path d="M2.1 -2.2C3.1 -1.7 4.6 -1.4 4.7 -0.8C4.9 -0.2 3.7 0.6 2.9 1.2C2 1.8 1.5 2.2 0.9 2.4C0.3 2.6 -0.4 2.7 -1.3 2.8C-2.3 2.8 -3.5 2.8 -4.4 2.1C-5.4 1.4 -6.1 0.1 -6 -1.2C-5.9 -2.5 -5.1 -3.8 -4 -4.4C-2.9 -4.9 -1.4 -4.7 -0.4 -4.2C0.5 -3.6 1.1 -2.8 2.1 -2.2Z" stroke="#baebaf" fill="none" stroke-width="20"></path></g><g transform="translate(383 207)"><path d="M3.1 -4.1C3.6 -3.2 3.5 -1.9 3.4 -0.8C3.3 0.2 3.2 1 3.2 2.6C3.2 4.1 3.2 6.4 2.4 6.8C1.6 7.1 0.1 5.6 -1.8 4.9C-3.7 4.2 -5.9 4.4 -6.2 3.7C-6.5 2.9 -5 1.1 -4.5 -0.6C-4 -2.4 -4.5 -4.2 -3.9 -5.1C-3.4 -6 -1.7 -6 -0.2 -5.7C1.3 -5.5 2.5 -5 3.1 -4.1Z" stroke="#baebaf" fill="none" stroke-width="20"></path></g><g transform="translate(371 363)"><path d="M2.9 -3.4C3.6 -3 3.7 -1.8 3.6 -0.9C3.5 0.1 3.2 0.9 3 2.1C2.8 3.4 2.6 5.2 1.7 6.1C0.8 7 -0.9 7 -2 6.3C-3.2 5.6 -3.8 4.1 -4.5 2.7C-5.2 1.3 -6 0.1 -6.1 -1.4C-6.2 -2.9 -5.7 -4.5 -4.6 -4.8C-3.5 -5.1 -1.7 -4 -0.3 -3.6C1.2 -3.3 2.3 -3.7 2.9 -3.4Z" stroke="#baebaf" fill="none" stroke-width="20"></path></g><g transform="translate(748 153)"><path d="M0.4 -0.5C0.4 -0.4 0.4 -0.2 0.5 -0.1C0.5 0.1 0.7 0.3 0.7 0.4C0.6 0.5 0.4 0.5 0.2 0.5C0.1 0.5 0 0.4 -0.2 0.4C-0.3 0.4 -0.5 0.4 -0.6 0.3C-0.7 0.2 -0.8 0 -0.7 -0.1C-0.7 -0.2 -0.5 -0.3 -0.4 -0.4C-0.2 -0.5 -0.1 -0.5 0 -0.5C0.2 -0.5 0.3 -0.5 0.4 -0.5Z" stroke="#baebaf" fill="none" stroke-width="20"></path></g><g transform="translate(776 351)"><path d="M2.2 -2.6C3.4 -1.7 5.3 -1.5 6.1 -0.6C6.9 0.3 6.5 1.9 5.4 2.5C4.3 3.1 2.6 2.6 1.3 2.7C0.1 2.7 -0.6 3.2 -1.4 3.2C-2.2 3.2 -3.1 2.8 -3.5 2C-3.9 1.3 -3.9 0.3 -3.6 -0.4C-3.2 -1.2 -2.5 -1.7 -1.9 -2.7C-1.2 -3.7 -0.6 -5.2 -0.1 -5.1C0.5 -5 1 -3.4 2.2 -2.6Z" stroke="#baebaf" fill="none" stroke-width="20"></path></g><g transform="translate(88 239)"><path d="M2.5 -2.8C3.4 -2.2 4.4 -1.6 4.4 -0.9C4.4 -0.1 3.5 0.7 2.9 1.6C2.3 2.6 2 3.8 1.2 4.6C0.4 5.4 -0.9 5.8 -1.9 5.4C-3 5 -3.6 3.8 -3.7 2.6C-3.8 1.5 -3.2 0.5 -3 -0.5C-2.8 -1.5 -3 -2.6 -2.5 -3.2C-2.1 -3.9 -1 -4.1 -0.1 -3.9C0.8 -3.8 1.6 -3.3 2.5 -2.8Z" stroke="#baebaf" fill="none" stroke-width="20"></path></g><g transform="translate(32 330)"><path d="M1.7 -1.9C2 -1.7 2.1 -1 2.4 -0.3C2.6 0.4 3 1.2 2.7 1.5C2.4 1.8 1.5 1.7 0.8 1.9C0 2.1 -0.5 2.5 -1.1 2.5C-1.8 2.6 -2.4 2.2 -2.9 1.6C-3.3 1 -3.6 0.1 -3.2 -0.3C-2.9 -0.8 -1.9 -0.9 -1.2 -1.1C-0.6 -1.3 -0.3 -1.6 0.2 -1.8C0.6 -2 1.3 -2.2 1.7 -1.9Z" stroke="#baebaf" fill="none" stroke-width="20"></path></g><g transform="translate(333 449)"><path d="M0.9 -1.1C1 -0.9 1 -0.5 1 -0.2C1.1 0.2 1.3 0.5 1.2 0.7C1.1 0.9 0.7 0.8 0.4 0.9C0 1 -0.2 1.2 -0.5 1.2C-0.8 1.2 -1.1 1 -1.3 0.7C-1.5 0.4 -1.7 0 -1.6 -0.3C-1.6 -0.6 -1.2 -0.8 -0.9 -0.9C-0.6 -1 -0.3 -1 0 -1C0.4 -1.1 0.7 -1.2 0.9 -1.1Z" stroke="#baebaf" fill="none" stroke-width="20"></path></g><g transform="translate(535 332)"><path d="M0.5 -0.6C0.7 -0.5 0.8 -0.3 0.8 -0.2C0.8 0 0.7 0.2 0.6 0.3C0.5 0.4 0.3 0.5 0.2 0.5C0.1 0.5 0 0.4 -0.2 0.4C-0.3 0.4 -0.4 0.3 -0.5 0.2C-0.7 0.2 -0.8 0 -0.8 -0.1C-0.7 -0.3 -0.6 -0.4 -0.4 -0.5C-0.3 -0.6 -0.1 -0.7 0 -0.7C0.2 -0.8 0.4 -0.7 0.5 -0.6Z" stroke="#baebaf" fill="none" stroke-width="20"></path></g><g transform="translate(614 124)"><path d="M0.9 -1.1C1.1 -1 1.1 -0.6 1 -0.3C0.9 0 0.8 0.2 0.7 0.4C0.5 0.5 0.4 0.6 0.2 0.7C0.1 0.8 -0.1 0.8 -0.4 0.8C-0.6 0.8 -0.9 0.7 -1.1 0.6C-1.3 0.4 -1.4 0.1 -1.3 -0.2C-1.2 -0.4 -0.9 -0.6 -0.7 -0.8C-0.5 -0.9 -0.2 -0.9 0.1 -1C0.4 -1.1 0.8 -1.3 0.9 -1.1Z" stroke="#baebaf" fill="none" stroke-width="20"></path></g><g transform="translate(17 263)"><path d="M4.5 -5.1C5.4 -4.6 5.4 -2.8 5.6 -1.1C5.8 0.6 6.1 2.1 5.3 2.7C4.5 3.2 2.7 2.7 1.2 3.2C-0.3 3.8 -1.4 5.4 -2 5.3C-2.5 5.1 -2.5 3.3 -3.4 1.9C-4.3 0.5 -6.1 -0.4 -6.2 -1.3C-6.3 -2.2 -4.8 -3 -3.5 -3.5C-2.2 -4 -1.1 -4.1 0.4 -4.5C1.8 -4.9 3.6 -5.7 4.5 -5.1Z" stroke="#baebaf" fill="none" stroke-width="20"></path></g><g transform="translate(804 223)"><path d="M4.7 -5.3C5.7 -4.8 5.7 -2.9 6.3 -0.9C6.8 1 7.9 3.1 7.3 4.1C6.6 5.1 4.2 5.1 2.4 5.1C0.6 5.2 -0.7 5.3 -2 5.1C-3.4 4.8 -4.8 4.2 -5 3.2C-5.3 2.1 -4.6 0.7 -4.7 -1.2C-4.8 -3.1 -5.8 -5.6 -5.1 -6.1C-4.5 -6.6 -2.3 -5.1 -0.2 -4.9C1.9 -4.7 3.8 -5.7 4.7 -5.3Z" stroke="#baebaf" fill="none" stroke-width="20"></path></g><g transform="translate(201 562)"><path d="M0.2 -0.3C0.3 -0.2 0.3 -0.1 0.3 -0.1C0.4 0 0.4 0.1 0.3 0.2C0.3 0.3 0.2 0.4 0.1 0.4C0.1 0.4 0 0.4 -0.2 0.4C-0.3 0.4 -0.5 0.4 -0.5 0.3C-0.6 0.2 -0.6 0.1 -0.5 -0.1C-0.5 -0.2 -0.4 -0.3 -0.3 -0.4C-0.2 -0.6 -0.1 -0.8 0 -0.7C0.1 -0.7 0.1 -0.5 0.2 -0.3Z" stroke="#baebaf" fill="none" stroke-width="20"></path></g><g transform="translate(822 275)"><path d="M4.2 -5.8C4.8 -4.5 4.2 -2.5 3.7 -1.2C3.2 0.1 2.9 0.8 2.7 1.9C2.5 3.1 2.4 4.8 1.6 5.5C0.8 6.3 -0.7 6.1 -1.5 5.3C-2.3 4.5 -2.5 3 -3.6 1.7C-4.8 0.5 -6.9 -0.5 -7.5 -2.1C-8.2 -3.7 -7.4 -5.8 -5.9 -6.9C-4.4 -8.1 -2.2 -8.3 -0.2 -8.1C1.8 -7.8 3.6 -7.1 4.2 -5.8Z" stroke="#baebaf" fill="none" stroke-width="20"></path></g><g transform="translate(582 470)"><path d="M0.2 -0.3C0.3 -0.2 0.4 -0.1 0.4 0C0.5 0.1 0.6 0.2 0.5 0.3C0.5 0.5 0.4 0.6 0.3 0.6C0.1 0.6 0 0.4 -0.1 0.4C-0.3 0.3 -0.5 0.4 -0.5 0.3C-0.5 0.2 -0.4 0.1 -0.3 0C-0.3 -0.2 -0.3 -0.3 -0.3 -0.3C-0.2 -0.4 -0.1 -0.5 0 -0.4C0.1 -0.4 0.1 -0.3 0.2 -0.3Z" stroke="#baebaf" fill="none" stroke-width="20"></path></g><g transform="translate(487 513)"><path d="M2.7 -2.9C3.5 -2.5 4.3 -1.7 4.7 -0.7C5 0.3 4.9 1.5 4.2 2.1C3.5 2.7 2.2 2.6 1.2 2.7C0.2 2.7 -0.5 3 -1.4 3C-2.3 3.1 -3.5 2.9 -3.8 2.2C-4.1 1.6 -3.7 0.5 -3.5 -0.6C-3.2 -1.7 -3.3 -2.8 -2.7 -3.3C-2.2 -3.8 -1.1 -3.7 -0.1 -3.6C0.9 -3.5 1.8 -3.4 2.7 -2.9Z" stroke="#baebaf" fill="none" stroke-width="20"></path></g><g transform="translate(448 425)"><path d="M2.9 -3.6C3.8 -2.8 4.4 -1.8 4.2 -1.1C3.9 -0.3 2.8 0.3 2.2 1.2C1.6 2.1 1.6 3.2 1.1 3.8C0.6 4.3 -0.5 4.2 -1.4 3.8C-2.4 3.5 -3.3 3 -3.3 2.2C-3.4 1.5 -2.6 0.6 -2.1 -0.1C-1.7 -0.8 -1.5 -1.2 -1.2 -2.1C-0.9 -2.9 -0.5 -4.2 0.3 -4.5C1.1 -4.9 2.1 -4.3 2.9 -3.6Z" stroke="#baebaf" fill="none" stroke-width="20"></path></g><g transform="translate(652 480)"><path d="M4.3 -5.5C5.3 -4.2 5.6 -2.7 5.7 -1.2C5.8 0.3 5.6 1.7 5 3.1C4.5 4.6 3.6 6.1 2.3 6.7C1.1 7.3 -0.7 6.9 -1.8 6C-2.9 5.1 -3.3 3.6 -4.4 2.3C-5.5 0.9 -7.2 -0.3 -7.2 -1.5C-7.3 -2.6 -5.6 -3.7 -4.1 -4.8C-2.6 -6 -1.3 -7.2 0.2 -7.4C1.6 -7.6 3.3 -6.7 4.3 -5.5Z" stroke="#baebaf" fill="none" stroke-width="20"></path></g><g transform="translate(864 550)"><path d="M2 -2.9C2.7 -1.9 3.2 -1.3 3.5 -0.5C3.8 0.3 3.7 1.2 3.5 2.4C3.3 3.6 2.8 5 1.7 5.9C0.6 6.9 -1.1 7.3 -2.2 6.6C-3.2 5.9 -3.6 4.1 -4.4 2.6C-5.1 1.1 -6.2 -0.1 -6 -1C-5.7 -1.9 -4.2 -2.5 -3 -3.4C-1.7 -4.2 -0.9 -5.3 -0.1 -5.2C0.7 -5.1 1.4 -3.8 2 -2.9Z" stroke="#baebaf" fill="none" stroke-width="20"></path></g><g transform="translate(543 65)"><path d="M2 -3.2C2.4 -2 2.4 -1.2 2.6 -0.4C2.8 0.4 3.1 1.2 3.1 2.3C3.1 3.5 2.7 5 1.8 5.7C0.8 6.5 -0.7 6.4 -2.2 5.9C-3.7 5.4 -5 4.6 -5.9 3.3C-6.7 2 -7.1 0.4 -6.4 -0.7C-5.8 -1.8 -4.1 -2.4 -2.9 -3.5C-1.6 -4.5 -0.8 -6.2 0 -6.2C0.8 -6.1 1.6 -4.5 2 -3.2Z" stroke="#baebaf" fill="none" stroke-width="20"></path></g><g transform="translate(349 142)"><path d="M0.3 -0.3C0.4 -0.2 0.5 -0.2 0.6 -0.1C0.7 0 0.6 0.2 0.5 0.3C0.5 0.4 0.3 0.4 0.2 0.4C0.1 0.4 0 0.4 -0.1 0.3C-0.3 0.3 -0.4 0.3 -0.4 0.2C-0.5 0.2 -0.5 0.1 -0.4 -0.1C-0.4 -0.2 -0.4 -0.4 -0.4 -0.5C-0.3 -0.6 -0.1 -0.8 0 -0.8C0.1 -0.7 0.1 -0.5 0.3 -0.3Z" stroke="#baebaf" fill="none" stroke-width="20"></path></g><g transform="translate(138 22)"><path d="M0.9 -0.8C1.3 -0.7 1.8 -0.6 1.9 -0.3C1.9 -0.1 1.4 0.2 1.1 0.5C0.7 0.7 0.6 0.9 0.4 1C0.2 1 -0.1 1 -0.4 0.9C-0.7 0.9 -1 0.8 -1.2 0.6C-1.4 0.4 -1.5 0.1 -1.5 -0.4C-1.6 -0.8 -1.6 -1.4 -1.4 -1.6C-1.1 -1.7 -0.6 -1.5 -0.2 -1.3C0.2 -1.1 0.5 -0.9 0.9 -0.8Z" stroke="#baebaf" fill="none" stroke-width="20"></path></g><g transform="translate(888 283)"><path d="M0.8 -1C0.9 -0.8 1 -0.5 1 -0.2C1 0.1 1 0.3 0.9 0.5C0.8 0.8 0.6 1 0.4 1C0.2 1 0 0.9 -0.4 0.9C-0.7 0.8 -1.2 0.9 -1.5 0.7C-1.7 0.5 -1.8 0.1 -1.7 -0.3C-1.6 -0.7 -1.4 -1.1 -1.1 -1.3C-0.8 -1.5 -0.4 -1.5 -0.1 -1.4C0.3 -1.4 0.6 -1.2 0.8 -1Z" stroke="#baebaf" fill="none" stroke-width="20"></path></g><g transform="translate(66 187)"><path d="M2.6 -2.9C3.2 -2.5 3.7 -1.6 3.7 -0.7C3.8 0.1 3.5 1 2.9 1.4C2.3 1.9 1.6 2.1 0.9 2.2C0.2 2.3 -0.3 2.4 -0.7 2.1C-1.1 1.9 -1.3 1.4 -1.4 1C-1.5 0.5 -1.5 0.1 -1.5 -0.3C-1.4 -0.7 -1.3 -1.1 -1.1 -1.5C-0.8 -2 -0.4 -2.6 0.3 -2.9C0.9 -3.2 1.9 -3.3 2.6 -2.9Z" stroke="#baebaf" fill="none" stroke-width="20"></path></g><g transform="translate(219 172)"><path d="M6.8 -6.8C8.7 -6.5 10.1 -4.2 10.3 -2C10.5 0.3 9.5 2.6 8 4.1C6.5 5.7 4.6 6.4 2.8 6.7C1 6.9 -0.7 6.7 -2.1 6C-3.5 5.4 -4.7 4.4 -6.2 3C-7.6 1.6 -9.4 -0.2 -8.9 -1.3C-8.4 -2.5 -5.7 -3 -3.8 -3.4C-2 -3.8 -1 -4 0.7 -4.9C2.4 -5.7 4.8 -7.2 6.8 -6.8Z" stroke="#baebaf" fill="none" stroke-width="20"></path></g><g transform="translate(602 447)"><path d="M2.1 -2.3C3.1 -1.8 4.4 -1.4 4.3 -0.9C4.2 -0.4 2.8 0.2 1.9 0.7C1.1 1.2 1 1.7 0.6 1.9C0.3 2.1 -0.2 2 -1.2 2.1C-2.2 2.3 -3.7 2.6 -3.8 2.3C-4 1.9 -2.9 0.8 -2.3 -0.1C-1.8 -1 -1.9 -1.6 -1.6 -2.3C-1.3 -3 -0.6 -3.7 0 -3.6C0.6 -3.6 1.2 -2.9 2.1 -2.3Z" stroke="#baebaf" fill="none" stroke-width="20"></path></g><g transform="translate(354 518)"><path d="M5.7 -7.4C7 -5.8 7.3 -3.6 6.9 -1.8C6.6 0 5.6 1.3 4.9 3.1C4.2 4.9 3.8 7.1 2.4 8.4C1 9.8 -1.5 10.3 -3.4 9.5C-5.3 8.7 -6.7 6.7 -7.5 4.6C-8.3 2.6 -8.5 0.5 -7.7 -0.9C-6.9 -2.3 -5 -3 -3.5 -4.6C-2.1 -6.2 -1 -8.6 0.6 -9.3C2.2 -10 4.5 -9 5.7 -7.4Z" stroke="#baebaf" fill="none" stroke-width="20"></path></g><g transform="translate(745 265)"><path d="M2.1 -2.5C2.6 -2 3 -1.3 2.9 -0.6C2.9 0 2.5 0.6 2.1 1.1C1.7 1.7 1.3 2.1 0.8 2.4C0.3 2.6 -0.3 2.6 -0.9 2.4C-1.5 2.2 -2 1.8 -2.1 1.3C-2.2 0.8 -2 0.3 -1.8 -0.2C-1.5 -0.6 -1.3 -0.9 -0.9 -1.4C-0.6 -1.9 -0.3 -2.6 0.2 -2.9C0.8 -3.2 1.5 -2.9 2.1 -2.5Z" stroke="#baebaf" fill="none" stroke-width="20"></path></g><g transform="translate(532 187)"><path d="M2.8 -3.1C3.5 -2.8 3.8 -1.8 3.6 -0.9C3.4 0 2.9 0.6 2.5 1.5C2.1 2.4 1.9 3.5 1.2 4.1C0.5 4.7 -0.7 5 -1.5 4.5C-2.3 4.1 -2.7 2.9 -3.1 1.9C-3.5 0.9 -4 0.1 -3.8 -0.6C-3.5 -1.2 -2.6 -1.6 -1.9 -1.9C-1.1 -2.1 -0.6 -2.2 0.3 -2.5C1.1 -2.8 2.1 -3.3 2.8 -3.1Z" stroke="#baebaf" fill="none" stroke-width="20"></path></g><g transform="translate(784 47)"><path d="M3.9 -4.8C4.6 -4 4.4 -2.4 4.2 -1C4.1 0.3 4.1 1.3 3.7 2.4C3.4 3.5 2.7 4.6 1.6 5.6C0.4 6.5 -1.3 7.4 -2.4 6.9C-3.5 6.4 -3.9 4.4 -4.7 2.8C-5.5 1.2 -6.7 -0.1 -6.7 -1.3C-6.6 -2.5 -5.2 -3.5 -3.9 -4.3C-2.6 -5 -1.3 -5.3 0.1 -5.5C1.6 -5.7 3.2 -5.7 3.9 -4.8Z" stroke="#baebaf" fill="none" stroke-width="20"></path></g><g transform="translate(507 52)"><path d="M3.5 -4.2C4.4 -3.4 4.9 -2.2 4.8 -1.1C4.6 -0.1 3.8 0.8 3.5 2.5C3.1 4.2 3.2 6.6 2.2 7.7C1.2 8.8 -0.9 8.5 -2.5 7.7C-4.2 6.8 -5.3 5.2 -6.2 3.6C-7 2 -7.5 0.3 -7.4 -1.4C-7.2 -3.1 -6.3 -4.7 -4.9 -5.4C-3.6 -6.1 -1.8 -5.9 -0.2 -5.6C1.3 -5.3 2.6 -5 3.5 -4.2Z" stroke="#baebaf" fill="none" stroke-width="20"></path></g><g transform="translate(611 417)"><path d="M0.7 -0.9C0.9 -0.8 1 -0.5 1 -0.2C1.1 0.1 1.2 0.4 1.1 0.6C1 0.8 0.6 0.8 0.3 1C0 1.1 -0.3 1.4 -0.7 1.5C-1 1.5 -1.4 1.2 -1.4 0.9C-1.4 0.6 -1.1 0.2 -0.9 -0.1C-0.8 -0.5 -0.9 -0.8 -0.8 -1C-0.7 -1.1 -0.3 -1 0 -1C0.3 -0.9 0.6 -1 0.7 -0.9Z" stroke="#baebaf" fill="none" stroke-width="20"></path></g><g transform="translate(150 564)"><path d="M1.7 -2C2.1 -1.6 2.5 -1 2.6 -0.5C2.7 0.1 2.5 0.7 2.1 0.9C1.6 1.2 1 1 0.5 1C0 1.1 -0.3 1.4 -0.8 1.5C-1.3 1.6 -1.9 1.5 -2 1.2C-2.1 0.9 -1.7 0.3 -1.6 -0.2C-1.4 -0.8 -1.5 -1.4 -1.3 -1.8C-1.1 -2.3 -0.5 -2.6 0 -2.6C0.6 -2.7 1.2 -2.4 1.7 -2Z" stroke="#baebaf" fill="none" stroke-width="20"></path></g><g transform="translate(46 292)"><path d="M5.7 -6.4C6.7 -5.9 6.4 -3.5 6.1 -1.6C5.7 0.2 5.3 1.5 4.8 3.2C4.3 4.9 3.8 6.9 2.8 6.9C1.8 6.9 0.4 4.9 -1.1 4C-2.6 3 -4.1 3.1 -4.8 2.5C-5.4 1.9 -5.1 0.5 -4.5 -0.4C-3.9 -1.4 -3 -1.9 -2.1 -2.4C-1.3 -2.9 -0.7 -3.5 0.8 -4.5C2.3 -5.5 4.7 -6.9 5.7 -6.4Z" stroke="#baebaf" fill="none" stroke-width="20"></path></g><g transform="translate(328 477)"><path d="M1.4 -2.3C1.7 -1.3 2 -0.9 2.2 -0.3C2.4 0.2 2.5 0.9 2.6 2.1C2.6 3.3 2.6 5.1 1.7 6C0.9 6.9 -0.8 6.8 -2.2 6.2C-3.6 5.6 -4.7 4.5 -5.4 3.2C-6.1 1.8 -6.4 0.3 -6.1 -1C-5.8 -2.4 -4.9 -3.5 -3.8 -4.3C-2.6 -5.2 -1.3 -5.6 -0.4 -5.1C0.5 -4.6 1 -3.2 1.4 -2.3Z" stroke="#baebaf" fill="none" stroke-width="20"></path></g><g transform="translate(315 542)"><path d="M2.8 -3.2C3.5 -2.8 3.7 -1.7 3.4 -1C3.1 -0.2 2.2 0.2 1.6 0.7C1.1 1.2 0.9 1.6 0.5 2.1C0.1 2.6 -0.6 3 -1 2.8C-1.4 2.6 -1.5 1.8 -1.6 1.2C-1.6 0.5 -1.6 0.1 -1.8 -0.6C-2 -1.2 -2.3 -2.2 -2 -2.7C-1.7 -3.2 -0.9 -3.4 0.1 -3.5C1.1 -3.6 2.1 -3.7 2.8 -3.2Z" stroke="#baebaf" fill="none" stroke-width="20"></path></g><g transform="translate(253 247)"><path d="M3.5 -4.1C4.3 -3.4 4.6 -2.2 5.2 -0.7C5.8 0.8 6.6 2.6 6.1 3.7C5.7 4.8 3.9 5.4 2.2 6C0.5 6.6 -1.2 7.3 -2.2 6.7C-3.3 6.1 -3.6 4.2 -4.7 2.6C-5.8 1 -7.5 -0.3 -7.4 -1.4C-7.4 -2.5 -5.5 -3.4 -4 -4C-2.4 -4.5 -1.2 -4.7 0.1 -4.7C1.3 -4.8 2.6 -4.8 3.5 -4.1Z" stroke="#baebaf" fill="none" stroke-width="20"></path></g><g transform="translate(801 328)"><path d="M3.5 -4.5C4.3 -3.5 4.5 -2.2 5 -0.7C5.5 0.8 6.3 2.4 5.9 3.5C5.4 4.6 3.7 5.2 2.1 5.9C0.4 6.6 -1.3 7.5 -2.1 6.7C-2.8 6 -2.5 3.7 -3.1 2.1C-3.7 0.5 -5 -0.3 -4.9 -0.9C-4.8 -1.4 -3.3 -1.8 -2.2 -2.7C-1.2 -3.6 -0.6 -5.2 0.4 -5.6C1.4 -6.1 2.7 -5.5 3.5 -4.5Z" stroke="#baebaf" fill="none" stroke-width="20"></path></g><g transform="translate(506 437)"><path d="M3.4 -3.9C4.7 -3 6.2 -2.2 6.2 -1.2C6.2 -0.3 4.7 0.8 3.6 1.4C2.4 2 1.6 2.1 0.7 2.8C-0.2 3.4 -1.1 4.6 -1.6 4.4C-2.1 4.2 -2.1 2.7 -2.3 1.7C-2.4 0.6 -2.7 0.1 -2.8 -0.7C-2.8 -1.4 -2.7 -2.2 -2.2 -3.2C-1.7 -4.3 -0.8 -5.5 0.1 -5.7C1.1 -5.8 2.1 -4.8 3.4 -3.9Z" stroke="#baebaf" fill="none" stroke-width="20"></path></g><g transform="translate(293 378)"><path d="M5.7 -6.6C7 -5.7 7.4 -3.6 7.2 -1.7C7 0.1 6.2 1.6 5.1 2.3C3.9 3.1 2.5 3.1 1.1 4.1C-0.4 5.1 -1.8 7.1 -3.1 7.2C-4.4 7.4 -5.6 5.6 -5.8 4C-6 2.3 -5.3 0.8 -5.4 -1.3C-5.4 -3.3 -6.2 -5.8 -5.4 -6.8C-4.7 -7.7 -2.3 -7.1 -0.1 -7C2.2 -6.9 4.4 -7.4 5.7 -6.6Z" stroke="#baebaf" fill="none" stroke-width="20"></path></g><g transform="translate(314 55)"><path d="M1.7 -1.8C2.2 -1.7 2.4 -1.1 2.7 -0.3C3 0.4 3.3 1.2 2.9 1.5C2.6 1.8 1.5 1.6 0.7 2C-0.2 2.3 -0.9 3.3 -1.2 3.3C-1.6 3.2 -1.6 2.1 -2.1 1.2C-2.5 0.4 -3.3 -0.2 -3.4 -0.8C-3.5 -1.3 -2.8 -1.9 -2.1 -2.1C-1.4 -2.2 -0.7 -1.8 0 -1.8C0.6 -1.7 1.3 -2 1.7 -1.8Z" stroke="#baebaf" fill="none" stroke-width="20"></path></g><g transform="translate(172 476)"><path d="M0.5 -0.6C0.6 -0.4 0.7 -0.3 0.9 -0.1C1 0.1 1.1 0.4 1.1 0.7C1 0.9 0.8 1.1 0.5 1.3C0.2 1.4 -0.2 1.4 -0.5 1.3C-0.9 1.2 -1.2 1.1 -1.3 0.8C-1.4 0.5 -1.2 0.2 -1.1 -0.2C-1 -0.5 -1 -0.8 -0.8 -1C-0.6 -1.1 -0.3 -1 -0.1 -0.9C0.2 -0.8 0.3 -0.7 0.5 -0.6Z" stroke="#baebaf" fill="none" stroke-width="20"></path></g><g transform="translate(478 25)"><path d="M3.5 -4.1C5.1 -2.8 7.5 -2.3 8.2 -1C8.8 0.2 7.9 2.1 6.9 4C5.8 6 4.7 7.9 3.3 8C1.8 8.1 0.1 6.4 -1.3 5.1C-2.6 3.9 -3.5 3.2 -4.3 2.3C-5 1.3 -5.6 0.1 -5.5 -1C-5.3 -2.1 -4.4 -3.1 -3.3 -4.5C-2.3 -6 -1.1 -7.8 -0.1 -7.7C0.9 -7.6 1.9 -5.5 3.5 -4.1Z" stroke="#baebaf" fill="none" stroke-width="20"></path></g><g transform="translate(85 331)"><path d="M1 -1.2C1.2 -1 1.3 -0.6 1.3 -0.3C1.3 0.1 1.3 0.4 1.1 0.6C1 0.8 0.7 1 0.4 1.1C0.1 1.3 -0.3 1.5 -0.5 1.4C-0.7 1.3 -0.8 0.9 -0.8 0.6C-0.9 0.3 -0.8 0.1 -0.8 -0.2C-0.8 -0.4 -0.8 -0.7 -0.7 -1C-0.6 -1.2 -0.3 -1.5 0 -1.5C0.4 -1.6 0.7 -1.5 1 -1.2Z" stroke="#baebaf" fill="none" stroke-width="20"></path></g><g transform="translate(302 105)"><path d="M1.7 -2C2.3 -1.5 2.9 -1.1 3 -0.6C3 -0.1 2.4 0.5 2.2 1.5C1.9 2.5 1.9 4 1.5 4.1C1.1 4.2 0.2 3 -0.4 2.2C-1 1.5 -1.3 1.2 -1.9 0.8C-2.5 0.4 -3.3 -0.1 -3.7 -1.2C-4.2 -2.2 -4.3 -3.8 -3.6 -4.3C-3 -4.8 -1.5 -4.2 -0.5 -3.7C0.6 -3.1 1.1 -2.5 1.7 -2Z" stroke="#baebaf" fill="none" stroke-width="20"></path></g><g transform="translate(117 61)"><path d="M2.4 -2.9C3.3 -2.1 4.3 -1.5 4.2 -0.9C4.2 -0.3 3 0.4 2.3 1.2C1.7 2 1.6 3 1.2 3.1C0.8 3.2 0.1 2.4 -0.9 2.2C-1.9 1.9 -3.3 2.3 -3.7 2C-4.1 1.6 -3.6 0.5 -3.4 -0.6C-3.2 -1.7 -3.3 -2.9 -2.8 -3.7C-2.3 -4.5 -1.1 -4.9 -0.2 -4.7C0.8 -4.5 1.5 -3.6 2.4 -2.9Z" stroke="#baebaf" fill="none" stroke-width="20"></path></g><g transform="translate(86 2)"><path d="M3.8 -3.8C5.2 -3.3 6.8 -2.4 7.4 -1.1C7.9 0.3 7.2 2 6 2.9C4.8 3.8 3.1 3.7 1.8 3.6C0.5 3.5 -0.3 3.3 -1.5 3.3C-2.8 3.3 -4.4 3.4 -6 2.5C-7.7 1.7 -9.3 -0.1 -9.3 -1.8C-9.2 -3.5 -7.4 -5.1 -5.6 -5.5C-3.7 -5.9 -1.9 -5.1 -0.3 -4.7C1.2 -4.3 2.4 -4.2 3.8 -3.8Z" stroke="#baebaf" fill="none" stroke-width="20"></path></g><g transform="translate(579 312)"><path d="M2.2 -3.3C2.7 -2.2 2.8 -1.4 3.2 -0.4C3.5 0.6 4.1 1.6 4 2.8C3.9 3.9 3.1 5 2.1 5.1C1.1 5.2 0 4.1 -1.2 3.6C-2.5 3 -3.8 3 -4.2 2.4C-4.5 1.8 -3.8 0.6 -3.4 -0.4C-3 -1.5 -3 -2.5 -2.4 -3.6C-1.9 -4.6 -1 -5.8 -0.1 -5.7C0.8 -5.7 1.7 -4.3 2.2 -3.3Z" stroke="#baebaf" fill="none" stroke-width="20"></path></g><g transform="translate(405 188)"><path d="M0.5 -0.6C0.6 -0.5 0.7 -0.3 0.7 -0.1C0.7 0.1 0.7 0.2 0.6 0.4C0.6 0.5 0.4 0.5 0.2 0.6C0.1 0.6 -0.1 0.7 -0.2 0.6C-0.3 0.6 -0.4 0.4 -0.5 0.3C-0.6 0.1 -0.8 0 -0.8 -0.1C-0.8 -0.3 -0.6 -0.4 -0.4 -0.5C-0.3 -0.6 -0.1 -0.6 0 -0.7C0.2 -0.7 0.4 -0.7 0.5 -0.6Z" stroke="#baebaf" fill="none" stroke-width="20"></path></g><g transform="translate(610 151)"><path d="M0.8 -0.8C1.2 -0.7 1.7 -0.5 2.1 -0.1C2.5 0.3 2.8 1 2.6 1.6C2.4 2.1 1.7 2.5 1 2.8C0.3 3.1 -0.5 3.3 -0.9 3C-1.3 2.6 -1.3 1.7 -1.4 1C-1.5 0.4 -1.8 0 -1.8 -0.3C-1.7 -0.7 -1.4 -1 -1.1 -1.1C-0.7 -1.3 -0.4 -1.2 -0.1 -1.2C0.2 -1.1 0.5 -0.9 0.8 -0.8Z" stroke="#baebaf" fill="none" stroke-width="20"></path></g><g transform="translate(738 178)"><path d="M1.4 -1.8C1.7 -1.4 1.9 -0.9 2 -0.4C2.1 0.1 2 0.7 1.8 1C1.6 1.4 1.1 1.7 0.7 1.7C0.3 1.7 0 1.4 -0.5 1.3C-0.9 1.2 -1.4 1.1 -1.5 0.9C-1.6 0.7 -1.4 0.2 -1.1 -0.1C-0.9 -0.4 -0.7 -0.5 -0.6 -0.9C-0.4 -1.4 -0.2 -2.1 0.2 -2.3C0.5 -2.4 1 -2.1 1.4 -1.8Z" stroke="#baebaf" fill="none" stroke-width="20"></path></g><g transform="translate(770 419)"><path d="M3.3 -3.9C4.3 -3 5.4 -2.1 5.6 -1C5.8 0.1 5.1 1.4 4.3 2.2C3.5 3.1 2.5 3.6 1.5 3.9C0.5 4.2 -0.5 4.2 -1.6 4C-2.6 3.7 -3.6 3.2 -4.6 2.3C-5.6 1.3 -6.5 0 -6.8 -1.8C-7.2 -3.5 -6.9 -5.7 -5.7 -6.6C-4.5 -7.4 -2.2 -6.9 -0.6 -6.2C1.1 -5.5 2.2 -4.7 3.3 -3.9Z" stroke="#baebaf" fill="none" stroke-width="20"></path></g><g transform="translate(706 454)"><path d="M5.4 -6.5C6.9 -5.2 7.9 -3.4 8.5 -1.3C9 0.7 9.1 3 7.9 4C6.7 5.1 4.2 5 2.5 4.6C0.8 4.3 -0.2 3.8 -1.3 3.4C-2.3 3.1 -3.4 2.8 -4.8 2C-6.2 1.2 -7.9 -0.3 -7.6 -1.2C-7.2 -2.1 -4.9 -2.6 -3.3 -3.9C-1.7 -5.2 -0.9 -7.4 0.5 -8C1.9 -8.7 3.9 -7.8 5.4 -6.5Z" stroke="#baebaf" fill="none" stroke-width="20"></path></g><g transform="translate(255 449)"><path d="M3.8 -3.5C5.4 -3.1 7.7 -2.4 7.6 -1.6C7.5 -0.7 5 0.4 3.6 1.5C2.2 2.6 2 3.7 1.1 4.9C0.1 6.1 -1.5 7.4 -3 7.2C-4.4 7.1 -5.8 5.6 -5.8 4.1C-5.8 2.5 -4.6 1 -4 -0.4C-3.4 -1.8 -3.5 -3.1 -3 -3.7C-2.4 -4.4 -1.2 -4.4 -0.1 -4.3C1.1 -4.2 2.1 -4 3.8 -3.5Z" stroke="#baebaf" fill="none" stroke-width="20"></path></g><g transform="translate(279 538)"><path d="M4.4 -5.6C5.7 -4.2 6.7 -2.8 6.8 -1.3C7 0.2 6.4 1.8 5.3 2.5C4.2 3.2 2.6 3.1 1.3 3.6C-0.1 4.1 -1.2 5.3 -2.5 5.4C-3.8 5.5 -5.2 4.7 -5.9 3.4C-6.7 2.1 -6.8 0.5 -6.2 -0.8C-5.6 -2 -4.4 -2.8 -3.2 -4.3C-2 -5.7 -1 -7.7 0.3 -8.1C1.6 -8.4 3.2 -7 4.4 -5.6Z" stroke="#baebaf" fill="none" stroke-width="20"></path></g><g transform="translate(339 286)"><path d="M2.9 -3.4C3.5 -3 3.5 -1.8 3.6 -0.7C3.7 0.4 3.9 1.4 3.5 1.8C3 2.3 1.9 2.2 1 2.3C0.1 2.5 -0.6 3 -1.3 3C-2 3 -2.7 2.5 -2.8 1.8C-2.9 1.2 -2.4 0.4 -2.1 -0.2C-1.7 -0.7 -1.5 -1.1 -1.2 -1.5C-0.8 -1.9 -0.4 -2.3 0.4 -2.7C1.2 -3.2 2.4 -3.7 2.9 -3.4Z" stroke="#baebaf" fill="none" stroke-width="20"></path></g><g transform="translate(221 273)"><path d="M2.1 -2.2C2.6 -2 2.8 -1.3 2.7 -0.6C2.6 0 2.3 0.5 1.8 0.9C1.4 1.2 1 1.3 0.6 1.4C0.2 1.4 -0.1 1.4 -0.8 1.5C-1.5 1.6 -2.6 1.8 -3.3 1.5C-4 1.1 -4.4 0.1 -4.2 -0.6C-3.9 -1.4 -3 -1.9 -2.2 -2.1C-1.4 -2.2 -0.7 -1.9 0 -2C0.8 -2 1.5 -2.4 2.1 -2.2Z" stroke="#baebaf" fill="none" stroke-width="20"></path></g><g transform="translate(86 574)"><path d="M1.5 -1.4C2.1 -1.2 2.8 -0.9 2.8 -0.6C2.8 -0.2 2 0.2 1.5 0.8C1.1 1.3 1 1.9 0.7 2.1C0.4 2.4 -0.2 2.2 -0.9 2.1C-1.5 2 -2.3 1.9 -2.6 1.5C-2.9 1 -2.7 0.3 -2.4 -0.2C-2.1 -0.8 -1.7 -1.1 -1.2 -1.3C-0.8 -1.5 -0.4 -1.6 0 -1.6C0.4 -1.6 0.9 -1.6 1.5 -1.4Z" stroke="#baebaf" fill="none" stroke-width="20"></path></g><g transform="translate(800 482)"><path d="M1 -1.1C1.3 -1 1.5 -0.6 1.6 -0.3C1.6 0 1.4 0.4 1.2 0.6C1 0.8 0.7 0.9 0.4 1C0.1 1 -0.2 1.1 -0.5 1.1C-0.8 1.1 -1.2 1 -1.3 0.7C-1.5 0.5 -1.5 0.1 -1.4 -0.3C-1.4 -0.6 -1.3 -1 -1 -1.1C-0.8 -1.3 -0.4 -1.1 0 -1.1C0.4 -1.1 0.7 -1.2 1 -1.1Z" stroke="#baebaf" fill="none" stroke-width="20"></path></g><g transform="translate(127 249)"><path d="M3.7 -3.5C5 -3.3 6.4 -2.3 6.8 -1.1C7.2 0.2 6.6 1.8 5.8 3.6C5.1 5.4 4.2 7.3 2.9 7.8C1.5 8.3 -0.4 7.4 -2.2 6.5C-3.9 5.7 -5.5 4.9 -6.1 3.6C-6.7 2.4 -6.2 0.7 -5.9 -1C-5.6 -2.7 -5.3 -4.4 -4.4 -4.6C-3.4 -4.9 -1.7 -3.7 -0.3 -3.4C1.2 -3.1 2.4 -3.7 3.7 -3.5Z" stroke="#baebaf" fill="none" stroke-width="20"></path></g><g transform="translate(369 575)"><path d="M1.6 -1.5C2.2 -1.4 3 -1 3.2 -0.5C3.5 0.1 3.2 0.9 2.7 1.4C2.2 2 1.6 2.3 0.9 2.6C0.2 2.9 -0.6 3.3 -1 3.1C-1.5 2.8 -1.6 1.9 -1.7 1.2C-1.8 0.5 -1.9 0.1 -2 -0.5C-2 -1 -2 -1.7 -1.7 -2C-1.4 -2.2 -0.7 -1.9 -0.1 -1.8C0.5 -1.7 1 -1.7 1.6 -1.5Z" stroke="#baebaf" fill="none" stroke-width="20"></path></g><g transform="translate(192 302)"><path d="M3.8 -4.7C5.2 -3.3 6.9 -2.4 7 -1.3C7.1 -0.2 5.6 1.1 4.5 2.4C3.5 3.7 2.9 5 1.9 5.5C0.8 6 -0.6 5.8 -1.7 5.2C-2.8 4.6 -3.7 3.6 -4.1 2.5C-4.6 1.4 -4.7 0.3 -4.4 -0.6C-4 -1.5 -3.2 -2.2 -2.4 -3.6C-1.6 -5.1 -0.8 -7.3 0.2 -7.6C1.2 -7.8 2.4 -6 3.8 -4.7Z" stroke="#baebaf" fill="none" stroke-width="20"></path></g><g transform="translate(797 112)"><path d="M4.1 -5C5 -4.1 5.3 -2.6 5.1 -1.3C4.9 0 4.2 1.1 3.8 2.5C3.3 3.9 3 5.7 2 6.5C1 7.4 -0.8 7.2 -1.8 6.3C-2.9 5.4 -3.1 3.7 -4.1 2.3C-5 0.8 -6.5 -0.3 -6.2 -0.9C-5.9 -1.6 -3.8 -1.8 -2.4 -2.5C-1.1 -3.3 -0.5 -4.7 0.5 -5.3C1.6 -5.9 3.2 -5.8 4.1 -5Z" stroke="#baebaf" fill="none" stroke-width="20"></path></g><g transform="translate(465 495)"><path d="M1.7 -2.3C2.1 -1.7 2.3 -1.1 2.3 -0.4C2.4 0.2 2.4 0.8 2.2 1.4C2 2 1.6 2.6 1.1 2.7C0.6 2.8 -0.1 2.4 -0.4 1.9C-0.8 1.5 -0.8 1 -1.2 0.6C-1.5 0.2 -2.2 -0.2 -2.2 -0.5C-2.3 -0.8 -1.8 -1.2 -1.3 -1.7C-0.8 -2.2 -0.4 -2.9 0.1 -3C0.7 -3.2 1.3 -2.8 1.7 -2.3Z" stroke="#baebaf" fill="none" stroke-width="20"></path></g><g transform="translate(359 404)"><path d="M1 -1.1C1.3 -0.9 1.6 -0.6 1.6 -0.3C1.6 0 1.3 0.3 1.1 0.7C0.9 1 0.8 1.4 0.6 1.5C0.3 1.6 0 1.3 -0.2 1.1C-0.5 0.8 -0.5 0.6 -0.7 0.4C-1 0.1 -1.3 -0.1 -1.3 -0.2C-1.3 -0.4 -0.9 -0.5 -0.6 -0.7C-0.3 -0.9 -0.2 -1.2 0.1 -1.3C0.3 -1.4 0.7 -1.3 1 -1.1Z" stroke="#baebaf" fill="none" stroke-width="20"></path></g><g transform="translate(778 569)"><path d="M1.6 -1.8C2.2 -1.4 2.9 -1 3.1 -0.5C3.2 0.1 2.9 0.8 2.4 1.2C1.9 1.6 1.3 1.8 0.8 1.7C0.3 1.7 -0.1 1.6 -0.7 1.5C-1.3 1.5 -2.1 1.6 -2.5 1.3C-2.8 1 -2.7 0.3 -2.5 -0.4C-2.3 -1 -2.1 -1.6 -1.6 -2.1C-1.2 -2.6 -0.6 -2.9 -0.1 -2.9C0.5 -2.8 1 -2.3 1.6 -1.8Z" stroke="#baebaf" fill="none" stroke-width="20"></path></g><g transform="translate(197 67)"><path d="M4 -4.6C4.5 -4.3 3.7 -2.4 3.8 -0.8C3.9 0.7 4.8 2 4.4 2.5C4.1 3 2.5 2.8 1.1 3.5C-0.4 4.3 -1.6 6.1 -3 6.4C-4.3 6.7 -5.7 5.4 -6.7 3.8C-7.6 2.3 -8 0.4 -7.4 -1C-6.8 -2.5 -5.3 -3.5 -3.9 -3.6C-2.5 -3.8 -1.3 -3.1 0.2 -3.4C1.7 -3.7 3.5 -4.9 4 -4.6Z" stroke="#baebaf" fill="none" stroke-width="20"></path></g><g transform="translate(769 378)"><path d="M1.1 -1.2C1.4 -1 1.5 -0.7 1.6 -0.3C1.6 0.1 1.6 0.5 1.4 0.9C1.2 1.3 1 1.7 0.6 2C0.1 2.4 -0.5 2.7 -0.9 2.5C-1.3 2.4 -1.6 1.7 -1.9 1.1C-2.2 0.5 -2.5 0 -2.6 -0.6C-2.7 -1.2 -2.5 -2 -2 -2.1C-1.5 -2.2 -0.8 -1.8 -0.2 -1.5C0.4 -1.3 0.8 -1.4 1.1 -1.2Z" stroke="#baebaf" fill="none" stroke-width="20"></path></g><g transform="translate(783 13)"><path d="M2.4 -3.1C3.4 -2 4.7 -1.5 5.1 -0.7C5.5 0.1 4.9 1.3 4.2 2.4C3.6 3.5 2.8 4.6 1.7 5.2C0.6 5.9 -0.9 6.1 -2.3 5.8C-3.8 5.6 -5.4 4.8 -5.6 3.6C-5.8 2.4 -4.8 0.9 -3.8 0C-2.9 -1 -2.2 -1.3 -1.5 -2.5C-0.9 -3.8 -0.5 -5.9 0.1 -6C0.7 -6.1 1.3 -4.3 2.4 -3.1Z" stroke="#baebaf" fill="none" stroke-width="20"></path></g><g transform="translate(622 281)"><path d="M1.4 -1.7C1.6 -1.4 1.6 -0.8 1.8 -0.2C2 0.4 2.5 1 2.4 1.6C2.3 2.2 1.8 2.7 1.1 3C0.4 3.2 -0.3 3.1 -0.8 2.7C-1.3 2.3 -1.4 1.6 -1.8 1C-2.1 0.5 -2.5 0 -2.5 -0.5C-2.5 -1.1 -2.2 -1.6 -1.7 -1.9C-1.2 -2.1 -0.6 -2.2 0 -2.1C0.6 -2.1 1.1 -2 1.4 -1.7Z" stroke="#baebaf" fill="none" stroke-width="20"></path></g><g transform="translate(632 336)"><path d="M1.1 -1.2C1.2 -1.1 1.2 -0.6 1.3 -0.2C1.4 0.2 1.7 0.7 1.5 0.9C1.4 1.1 0.9 1.1 0.5 1.1C0.1 1.1 -0.2 1.1 -0.4 1C-0.6 0.9 -0.7 0.7 -0.7 0.5C-0.8 0.3 -0.8 0.1 -0.9 -0.3C-0.9 -0.6 -1.1 -1 -0.9 -1.2C-0.8 -1.3 -0.4 -1.2 0 -1.2C0.4 -1.2 0.9 -1.4 1.1 -1.2Z" stroke="#baebaf" fill="none" stroke-width="20"></path></g><g transform="translate(188 392)"><path d="M0.4 -0.5C0.5 -0.4 0.5 -0.3 0.5 -0.1C0.5 0 0.5 0.1 0.4 0.3C0.4 0.4 0.3 0.6 0.2 0.7C0.1 0.8 -0.1 0.8 -0.2 0.7C-0.3 0.6 -0.3 0.4 -0.4 0.2C-0.5 0.1 -0.7 0 -0.7 -0.2C-0.7 -0.3 -0.6 -0.4 -0.5 -0.5C-0.3 -0.5 -0.2 -0.4 0 -0.4C0.2 -0.4 0.3 -0.5 0.4 -0.5Z" stroke="#baebaf" fill="none" stroke-width="20"></path></g><g transform="translate(764 461)"><path d="M1.6 -2C2.1 -1.5 2.6 -1 3.1 -0.2C3.7 0.6 4.3 1.7 4.1 2.7C4 3.7 2.9 4.4 1.7 5.1C0.4 5.7 -1 6.3 -2 5.8C-2.9 5.3 -3.3 3.7 -3.9 2.4C-4.5 1.1 -5.3 0 -5.2 -1C-5.2 -2.1 -4.3 -3.1 -3.3 -3.4C-2.3 -3.8 -1.1 -3.5 -0.3 -3.2C0.6 -2.9 1.1 -2.5 1.6 -2Z" stroke="#baebaf" fill="none" stroke-width="20"></path></g><g transform="translate(640 229)"><path d="M1.3 -1.5C1.8 -1.1 2.4 -0.8 2.7 -0.3C3 0.2 3 1 2.6 1.5C2.3 2.1 1.7 2.5 1.1 2.5C0.5 2.5 -0.1 2.2 -0.6 1.9C-1.1 1.6 -1.5 1.4 -1.9 1C-2.2 0.6 -2.6 0 -2.6 -0.5C-2.5 -1 -2.1 -1.5 -1.6 -1.9C-1.1 -2.3 -0.6 -2.7 -0.1 -2.6C0.4 -2.5 0.8 -2 1.3 -1.5Z" stroke="#baebaf" fill="none" stroke-width="20"></path></g><g transform="translate(536 383)"><path d="M0.8 -1.1C0.9 -0.8 0.8 -0.5 0.8 -0.2C0.9 0.1 1 0.4 0.9 0.5C0.8 0.7 0.5 0.7 0.3 0.8C0.1 0.8 -0.1 0.8 -0.4 0.8C-0.6 0.8 -0.9 0.7 -1.1 0.5C-1.3 0.4 -1.5 0 -1.4 -0.2C-1.3 -0.4 -0.9 -0.5 -0.6 -0.8C-0.4 -1 -0.2 -1.4 0.1 -1.4C0.3 -1.5 0.6 -1.3 0.8 -1.1Z" stroke="#baebaf" fill="none" stroke-width="20"></path></g><g transform="translate(180 189)"><path d="M2.2 -2.4C3.1 -1.9 4.2 -1.4 4.5 -0.7C4.7 0 4.1 1 3.4 1.8C2.8 2.5 2 3.1 1.1 3.9C0.1 4.6 -1.2 5.7 -2 5.4C-2.8 5.1 -3.2 3.6 -4 2.3C-4.9 0.9 -6.2 -0.2 -6.3 -1.4C-6.4 -2.6 -5.4 -3.9 -4.1 -4.3C-2.9 -4.7 -1.4 -4.2 -0.4 -3.7C0.7 -3.2 1.3 -2.8 2.2 -2.4Z" stroke="#baebaf" fill="none" stroke-width="20"></path></g><g transform="translate(650 356)"><path d="M5.2 -5.8C6.8 -4.8 8.2 -3.3 8.1 -1.8C8 -0.2 6.3 1.2 5 2.3C3.7 3.3 2.7 4 1.7 4.1C0.7 4.2 -0.3 3.8 -1.7 3.7C-3.2 3.7 -5.1 3.9 -5.8 3.1C-6.6 2.4 -6.1 0.7 -5.8 -1.1C-5.6 -2.9 -5.6 -4.8 -4.6 -5.8C-3.7 -6.9 -1.9 -7.2 0 -7.2C1.8 -7.1 3.6 -6.8 5.2 -5.8Z" stroke="#baebaf" fill="none" stroke-width="20"></path></g><g transform="translate(552 463)"><path d="M2.2 -2.4C3 -1.9 3.8 -1.4 4.1 -0.6C4.4 0.2 4 1.2 3.3 1.5C2.6 1.9 1.6 1.6 0.8 1.6C0.1 1.7 -0.4 2 -1 2C-1.6 2.1 -2.3 1.9 -2.9 1.4C-3.6 0.9 -4.2 0 -3.8 -0.4C-3.4 -0.9 -2.2 -1 -1.4 -1.5C-0.6 -1.9 -0.3 -2.7 0.2 -2.9C0.7 -3.2 1.4 -2.8 2.2 -2.4Z" stroke="#baebaf" fill="none" stroke-width="20"></path></g><g transform="translate(399 126)"><path d="M0.8 -0.8C1 -0.8 1.2 -0.5 1.2 -0.3C1.1 0 0.9 0.2 0.7 0.3C0.5 0.4 0.4 0.5 0.2 0.6C0.1 0.6 -0.1 0.6 -0.3 0.6C-0.6 0.6 -1.1 0.8 -1.4 0.6C-1.6 0.5 -1.7 0.1 -1.5 -0.2C-1.4 -0.4 -1 -0.6 -0.7 -0.6C-0.4 -0.7 -0.2 -0.7 0 -0.8C0.3 -0.8 0.6 -0.9 0.8 -0.8Z" stroke="#baebaf" fill="none" stroke-width="20"></path></g><g transform="translate(105 117)"><path d="M3.5 -4.8C4 -3.8 3.5 -2.2 3.7 -0.7C3.9 0.8 4.8 2 4.8 3.4C4.8 4.8 3.8 6.4 2.4 7C1 7.6 -0.8 7.4 -2.3 6.7C-3.8 5.9 -4.9 4.7 -5.9 3.3C-6.8 1.9 -7.5 0.2 -7.4 -1.5C-7.3 -3.2 -6.5 -5 -5.1 -5.8C-3.8 -6.7 -1.9 -6.7 -0.2 -6.5C1.5 -6.3 3.1 -5.9 3.5 -4.8Z" stroke="#baebaf" fill="none" stroke-width="20"></path></g><g transform="translate(254 300)"><path d="M2.2 -2.6C2.7 -2.3 2.8 -1.4 2.8 -0.6C2.8 0.2 2.8 0.9 2.4 1.3C2 1.6 1.3 1.6 0.8 1.6C0.3 1.5 -0.1 1.3 -0.7 1.3C-1.2 1.3 -2 1.5 -2.5 1.2C-3 0.9 -3.3 0.1 -3.3 -0.7C-3.3 -1.6 -3.1 -2.5 -2.5 -2.9C-2 -3.2 -1 -2.9 -0.1 -2.9C0.9 -2.8 1.8 -3 2.2 -2.6Z" stroke="#baebaf" fill="none" stroke-width="20"></path></g><g transform="translate(126 457)"><path d="M4.5 -5.6C5.2 -4.7 4.9 -2.8 5.2 -0.9C5.5 0.9 6.6 2.7 6 3.3C5.4 3.8 3.2 3.3 1.7 3.1C0.3 2.9 -0.5 3.1 -1.3 3C-2.1 2.9 -2.9 2.6 -3.9 1.8C-5 1 -6.2 -0.1 -6.3 -1.4C-6.4 -2.7 -5.5 -4 -4.2 -4.8C-3 -5.6 -1.5 -5.8 0.2 -6C1.9 -6.2 3.7 -6.5 4.5 -5.6Z" stroke="#baebaf" fill="none" stroke-width="20"></path></g><g transform="translate(192 37)"><path d="M1.2 -1.7C1.5 -1.1 1.7 -0.7 1.8 -0.3C1.9 0.1 1.8 0.5 1.5 0.8C1.3 1.2 0.9 1.3 0.5 1.6C0.1 1.9 -0.5 2.3 -0.9 2.2C-1.4 2.2 -1.8 1.7 -2.2 1.2C-2.5 0.7 -2.8 0.1 -2.7 -0.5C-2.6 -1 -2.2 -1.5 -1.7 -2.1C-1.1 -2.6 -0.6 -3.2 -0.1 -3.1C0.4 -3 0.9 -2.3 1.2 -1.7Z" stroke="#baebaf" fill="none" stroke-width="20"></path></g><g transform="translate(377 495)"><path d="M0.2 -0.3C0.3 -0.2 0.4 -0.1 0.5 0C0.5 0 0.5 0.2 0.5 0.3C0.4 0.4 0.3 0.5 0.2 0.5C0 0.6 -0.1 0.7 -0.3 0.7C-0.5 0.7 -0.7 0.6 -0.7 0.4C-0.7 0.3 -0.5 0.1 -0.4 0C-0.4 -0.2 -0.4 -0.3 -0.3 -0.4C-0.3 -0.5 -0.1 -0.5 0 -0.5C0.1 -0.4 0.1 -0.3 0.2 -0.3Z" stroke="#baebaf" fill="none" stroke-width="20"></path></g><g transform="translate(698 592)"><path d="M2.1 -2.1C3 -1.7 4.4 -1.3 4.9 -0.6C5.4 0.2 4.9 1.4 4.4 2.7C3.8 3.9 3.1 5.3 2 5.9C0.8 6.5 -0.7 6.4 -1.5 5.5C-2.3 4.6 -2.3 3 -3.1 1.7C-3.9 0.4 -5.5 -0.4 -5.9 -1.5C-6.3 -2.7 -5.5 -4.1 -4.3 -4.5C-3.1 -4.8 -1.5 -4.1 -0.5 -3.5C0.6 -2.9 1.1 -2.4 2.1 -2.1Z" stroke="#baebaf" fill="none" stroke-width="20"></path></g><g transform="translate(871 110)"><path d="M1.9 -1.7C2.9 -1.5 4.4 -1.2 5.1 -0.4C5.9 0.5 5.9 2 5.4 3.2C4.8 4.5 3.6 5.5 2.2 5.9C0.9 6.3 -0.7 6.1 -1.5 5.3C-2.4 4.5 -2.6 3.1 -3 1.9C-3.5 0.8 -4.1 0 -4.3 -1.1C-4.5 -2.1 -4.2 -3.5 -3.5 -3.7C-2.7 -3.9 -1.3 -3 -0.4 -2.5C0.5 -2 0.9 -1.8 1.9 -1.7Z" stroke="#baebaf" fill="none" stroke-width="20"></path></g><g transform="translate(15 220)"><path d="M4.6 -6.1C5.9 -4.4 6.7 -2.9 6.6 -1.5C6.4 -0.1 5.2 1.1 4.1 1.9C3 2.6 2.1 3 1.1 3.7C0 4.4 -1.2 5.5 -2.2 5.4C-3.2 5.3 -3.9 4 -4.9 2.7C-5.9 1.3 -7.1 -0.1 -6.8 -1.1C-6.5 -2.2 -4.8 -2.9 -3.4 -4.6C-2 -6.3 -1 -8.9 0.3 -9.3C1.7 -9.7 3.3 -7.8 4.6 -6.1Z" stroke="#baebaf" fill="none" stroke-width="20"></path></g><g transform="translate(882 139)"><path d="M5.7 -6.5C7.2 -5.5 8.1 -3.5 7.7 -1.9C7.3 -0.4 5.5 0.9 4.6 2.8C3.7 4.7 3.7 7.4 2.7 7.9C1.8 8.4 -0.1 6.9 -1.8 5.8C-3.5 4.8 -5.1 4.4 -5.9 3.3C-6.6 2.2 -6.4 0.6 -5.7 -0.6C-5 -1.7 -3.6 -2.2 -2.6 -3.3C-1.5 -4.4 -0.8 -6.1 0.7 -6.9C2.1 -7.7 4.1 -7.5 5.7 -6.5Z" stroke="#baebaf" fill="none" stroke-width="20"></path></g><g transform="translate(328 120)"><path d="M2.3 -2.9C3 -2.1 3.8 -1.4 4.2 -0.5C4.6 0.4 4.8 1.7 4.4 2.6C3.9 3.6 2.9 4.4 1.8 4.5C0.8 4.7 -0.3 4.2 -1.3 3.8C-2.2 3.3 -3.1 2.8 -3.3 2.1C-3.5 1.4 -3 0.5 -2.8 -0.5C-2.6 -1.4 -2.7 -2.3 -2.3 -3.1C-1.8 -4 -0.9 -4.6 -0.1 -4.6C0.8 -4.5 1.5 -3.6 2.3 -2.9Z" stroke="#baebaf" fill="none" stroke-width="20"></path></g><g transform="translate(221 118)"><path d="M3.4 -4.3C4.1 -3.4 4.3 -2.1 4.4 -0.9C4.5 0.3 4.5 1.5 4 2.5C3.6 3.4 2.7 4.3 1.7 4.8C0.6 5.2 -0.7 5.3 -1.7 4.8C-2.7 4.4 -3.5 3.4 -3.7 2.4C-3.9 1.5 -3.5 0.5 -3.1 -0.3C-2.7 -1.1 -2.2 -1.6 -1.7 -2.5C-1.2 -3.4 -0.6 -4.7 0.4 -5.1C1.3 -5.5 2.6 -5.1 3.4 -4.3Z" stroke="#baebaf" fill="none" stroke-width="20"></path></g><g transform="translate(304 411)"><path d="M3.3 -3.6C4 -3.2 4.3 -2 4.3 -0.9C4.3 0.2 4 1.1 3.4 1.7C2.8 2.3 1.9 2.5 1.1 2.6C0.4 2.7 -0.3 2.6 -0.7 2.3C-1.1 1.9 -1.3 1.4 -1.6 0.9C-1.8 0.5 -2 0 -2.1 -0.5C-2.2 -1.1 -2.2 -1.8 -1.8 -2.2C-1.4 -2.6 -0.7 -2.7 0.3 -3C1.2 -3.3 2.5 -3.9 3.3 -3.6Z" stroke="#baebaf" fill="none" stroke-width="20"></path></g><g transform="translate(697 376)"><path d="M2.4 -2.6C3.1 -2.3 3.6 -1.5 3.8 -0.6C4.1 0.3 4 1.3 3.4 1.7C2.8 2 1.7 1.8 0.9 1.7C0.2 1.6 -0.2 1.6 -0.8 1.7C-1.4 1.7 -2.2 1.7 -2.5 1.4C-2.8 1 -2.5 0.3 -2.3 -0.3C-2.1 -1 -2 -1.6 -1.6 -2C-1.2 -2.3 -0.6 -2.5 0.1 -2.6C0.9 -2.8 1.7 -2.9 2.4 -2.6Z" stroke="#baebaf" fill="none" stroke-width="20"></path></g><g transform="translate(314 153)"><path d="M2.1 -2.4C3.1 -1.6 4.6 -1.4 5 -0.7C5.3 0 4.5 1.1 3.8 2.2C3.1 3.3 2.6 4.4 1.6 5C0.7 5.6 -0.7 5.7 -1.5 5C-2.3 4.4 -2.5 3 -2.9 1.9C-3.4 0.8 -4.1 0 -4 -0.7C-3.9 -1.4 -3 -2 -2.2 -2.8C-1.4 -3.7 -0.7 -4.8 -0.1 -4.7C0.5 -4.6 1.1 -3.3 2.1 -2.4Z" stroke="#baebaf" fill="none" stroke-width="20"></path></g><g transform="translate(478 431)"><path d="M1.4 -1.8C1.6 -1.6 1.4 -0.9 1.4 -0.3C1.4 0.2 1.6 0.7 1.6 1.1C1.5 1.4 1.2 1.8 0.8 1.8C0.4 1.9 -0.1 1.6 -0.3 1.3C-0.6 1 -0.7 0.8 -0.8 0.5C-0.9 0.3 -1 0 -1.2 -0.4C-1.3 -0.8 -1.5 -1.4 -1.3 -1.6C-1.1 -1.9 -0.6 -1.7 0 -1.7C0.6 -1.7 1.2 -2 1.4 -1.8Z" stroke="#baebaf" fill="none" stroke-width="20"></path></g><g transform="translate(743 32)"><path d="M4.2 -4.2C5.8 -3.7 7.7 -2.7 7.4 -1.7C7.1 -0.7 4.7 0.3 3.5 1.6C2.3 2.9 2.2 4.5 1.5 5.2C0.8 5.9 -0.6 5.8 -1.9 5.3C-3.2 4.8 -4.3 4 -4.7 2.9C-5.1 1.8 -4.9 0.5 -5 -1.3C-5.2 -3 -5.7 -5.2 -4.9 -5.9C-4.2 -6.5 -2.1 -5.6 -0.4 -5.1C1.3 -4.7 2.6 -4.7 4.2 -4.2Z" stroke="#baebaf" fill="none" stroke-width="20"></path></g><g transform="translate(154 80)"><path d="M4.8 -6.1C5.3 -5.2 4.1 -2.9 3.9 -1.2C3.6 0.6 4.2 1.7 3.9 2.4C3.7 3.1 2.5 3.5 1.2 4.5C-0.1 5.5 -1.7 7.2 -2.9 7.1C-4.2 7 -5.2 5.3 -6.1 3.6C-7.1 1.8 -8 0.1 -7.6 -1.2C-7.2 -2.5 -5.5 -3.5 -4 -4.2C-2.5 -5 -1.3 -5.4 0.4 -5.9C2.1 -6.4 4.3 -7 4.8 -6.1Z" stroke="#baebaf" fill="none" stroke-width="20"></path></g><g transform="translate(538 305)"><path d="M1 -1.5C1.2 -1.1 1.1 -0.6 1 -0.3C1 0.1 0.9 0.3 0.9 0.7C0.9 1.1 0.8 1.7 0.6 1.9C0.3 2.2 -0.3 2.2 -0.9 2.1C-1.5 2 -2.1 1.8 -2.3 1.4C-2.6 0.9 -2.5 0.3 -2.3 -0.4C-2.2 -1 -2.1 -1.7 -1.7 -2C-1.3 -2.4 -0.6 -2.5 -0.1 -2.4C0.4 -2.2 0.8 -1.9 1 -1.5Z" stroke="#baebaf" fill="none" stroke-width="20"></path></g><g transform="translate(357 215)"><path d="M1.6 -1.7C1.9 -1.6 1.9 -1 1.9 -0.5C1.8 0.1 1.6 0.5 1.5 0.9C1.3 1.4 1.1 1.9 0.7 2.2C0.3 2.5 -0.3 2.5 -0.8 2.2C-1.3 2 -1.6 1.6 -1.9 1.1C-2.2 0.6 -2.3 0.1 -2.3 -0.4C-2.3 -1 -2 -1.5 -1.6 -1.6C-1.2 -1.7 -0.6 -1.3 0 -1.3C0.6 -1.3 1.2 -1.7 1.6 -1.7Z" stroke="#baebaf" fill="none" stroke-width="20"></path></g><g transform="translate(324 517)"><path d="M1.5 -1.7C1.9 -1.4 2.1 -0.9 2.1 -0.4C2.1 0 1.9 0.5 1.6 0.8C1.3 1.2 0.9 1.4 0.6 1.6C0.2 1.7 -0.2 1.8 -0.6 1.6C-0.9 1.5 -1.1 1.1 -1.3 0.7C-1.6 0.3 -2 0 -2 -0.4C-2 -0.8 -1.7 -1.2 -1.3 -1.4C-0.9 -1.6 -0.4 -1.7 0.1 -1.7C0.5 -1.8 1.1 -1.9 1.5 -1.7Z" stroke="#baebaf" fill="none" stroke-width="20"></path></g><g transform="translate(460 5)"><path d="M2 -2.4C2.9 -1.7 3.9 -1.3 4.2 -0.6C4.5 0.1 4.1 1.1 3.5 1.8C2.8 2.4 1.9 2.6 1.1 2.8C0.3 3 -0.5 3.2 -1.2 3C-2 2.9 -2.7 2.4 -2.9 1.8C-3 1.2 -2.7 0.4 -2.3 -0.3C-2 -0.9 -1.8 -1.4 -1.4 -2.1C-1 -2.8 -0.5 -3.8 0 -3.8C0.6 -3.9 1.2 -3 2 -2.4Z" stroke="#baebaf" fill="none" stroke-width="20"></path></g><g transform="translate(731 519)"><path d="M1 -1.3C1.4 -0.9 1.7 -0.6 2.1 -0.1C2.5 0.4 2.9 1.2 2.7 1.6C2.5 2 1.7 2.2 1 2.1C0.4 2 -0.1 1.8 -0.6 1.6C-1 1.4 -1.4 1.2 -1.8 0.9C-2.2 0.5 -2.6 0 -2.6 -0.6C-2.6 -1.1 -2.3 -1.7 -1.8 -2.1C-1.3 -2.4 -0.6 -2.5 -0.2 -2.4C0.3 -2.2 0.7 -1.7 1 -1.3Z" stroke="#baebaf" fill="none" stroke-width="20"></path></g><g transform="translate(712 211)"><path d="M1.3 -1.6C1.5 -1.4 1.3 -0.8 1.1 -0.4C0.9 0 0.8 0.2 0.7 0.5C0.6 0.8 0.6 1.2 0.4 1.5C0.1 1.8 -0.4 2.1 -0.8 2C-1.2 1.9 -1.5 1.5 -1.5 1.1C-1.5 0.7 -1.2 0.3 -1.2 -0.3C-1.2 -0.8 -1.5 -1.5 -1.3 -1.8C-1.2 -2 -0.6 -1.9 0 -1.9C0.6 -1.9 1.1 -1.9 1.3 -1.6Z" stroke="#baebaf" fill="none" stroke-width="20"></path></g><g transform="translate(610 200)"><path d="M0.8 -0.9C1.1 -0.7 1.4 -0.5 1.8 0C2.3 0.4 2.8 1.2 2.7 1.7C2.5 2.2 1.8 2.5 1 2.8C0.3 3.1 -0.5 3.3 -1.2 3.1C-1.9 2.9 -2.5 2.4 -2.6 1.7C-2.6 1.1 -2.1 0.4 -1.9 -0.2C-1.7 -0.9 -1.7 -1.5 -1.5 -1.7C-1.2 -1.9 -0.6 -1.6 -0.2 -1.4C0.2 -1.2 0.5 -1 0.8 -0.9Z" stroke="#baebaf" fill="none" stroke-width="20"></path></g><g transform="translate(429 474)"><path d="M1.9 -2.7C2.2 -2 1.9 -1.2 1.9 -0.5C1.9 0.2 2 0.7 2 1.5C1.9 2.2 1.7 3.1 1.2 3.1C0.8 3.1 0.1 2.3 -0.3 1.8C-0.7 1.2 -0.9 0.9 -1.4 0.6C-2 0.2 -2.8 -0.2 -3.1 -0.9C-3.4 -1.6 -3.2 -2.6 -2.6 -3.2C-2 -3.8 -1 -4 -0.1 -3.9C0.8 -3.8 1.6 -3.4 1.9 -2.7Z" stroke="#baebaf" fill="none" stroke-width="20"></path></g><g transform="translate(843 432)"><path d="M4.1 -5.1C4.7 -4.3 4.2 -2.5 4.3 -0.9C4.3 0.6 5 1.9 4.5 2.6C4.1 3.2 2.6 3.2 1.5 3.3C0.3 3.5 -0.6 3.8 -1.2 3.5C-1.7 3.2 -2 2.2 -2.9 1.3C-3.8 0.5 -5.4 -0.4 -5.3 -0.9C-5.2 -1.5 -3.5 -1.8 -2.3 -2.5C-1.2 -3.1 -0.6 -4.1 0.6 -4.8C1.7 -5.5 3.4 -5.8 4.1 -5.1Z" stroke="#baebaf" fill="none" stroke-width="20"></path></g><g transform="translate(673 216)"><path d="M1 -1.2C1.2 -1 1.3 -0.6 1.3 -0.2C1.4 0.2 1.5 0.5 1.4 0.8C1.2 1 0.8 1.1 0.5 1C0.2 1 0 0.8 -0.2 0.7C-0.4 0.6 -0.5 0.5 -0.5 0.3C-0.6 0.2 -0.6 0 -0.7 -0.2C-0.7 -0.4 -0.8 -0.7 -0.7 -0.9C-0.6 -1.1 -0.3 -1.2 0.1 -1.2C0.4 -1.3 0.8 -1.3 1 -1.2Z" stroke="#baebaf" fill="none" stroke-width="20"></path></g><g transform="translate(808 538)"><path d="M1.4 -2C1.7 -1.3 1.9 -0.9 1.9 -0.4C1.9 0 1.7 0.4 1.5 0.9C1.2 1.3 1 1.7 0.7 1.8C0.4 1.9 -0.1 1.6 -0.6 1.5C-1.1 1.4 -1.8 1.4 -2.5 1C-3.2 0.6 -3.9 -0.1 -4.1 -1C-4.2 -1.8 -3.7 -2.8 -2.9 -3.4C-2.1 -3.9 -1.1 -4 -0.3 -3.7C0.5 -3.4 1 -2.6 1.4 -2Z" stroke="#baebaf" fill="none" stroke-width="20"></path></g><g transform="translate(553 265)"><path d="M1.3 -1.8C1.6 -1.3 1.9 -0.8 2.2 -0.2C2.5 0.4 3 1.2 2.7 1.5C2.4 1.7 1.4 1.4 0.7 1.6C0 1.7 -0.5 2.2 -0.9 2.2C-1.3 2.2 -1.7 1.7 -1.8 1.2C-1.9 0.7 -1.8 0.2 -1.7 -0.3C-1.5 -0.7 -1.4 -1.1 -1.1 -1.6C-0.8 -2.1 -0.4 -2.8 0 -2.8C0.5 -2.9 1 -2.3 1.3 -1.8Z" stroke="#baebaf" fill="none" stroke-width="20"></path></g><g transform="translate(638 427)"><path d="M1.4 -2C1.5 -1.5 1.2 -0.8 1.2 -0.3C1.1 0.3 1.5 0.7 1.4 1C1.4 1.3 1 1.5 0.6 1.7C0.1 2 -0.4 2.2 -0.8 2.1C-1.2 2 -1.5 1.5 -1.6 1.1C-1.7 0.6 -1.5 0.2 -1.5 -0.3C-1.5 -0.9 -1.6 -1.5 -1.4 -1.9C-1.2 -2.3 -0.6 -2.5 0 -2.5C0.6 -2.5 1.2 -2.4 1.4 -2Z" stroke="#baebaf" fill="none" stroke-width="20"></path></g><g transform="translate(844 323)"><path d="M3.6 -4.3C4.6 -3.4 5.3 -2.2 5.6 -0.9C5.9 0.4 5.7 1.8 4.9 2.4C4 3 2.4 2.7 1 3.5C-0.4 4.3 -1.7 6.2 -3 6.5C-4.3 6.8 -5.7 5.4 -6.4 3.8C-7.1 2.3 -7.2 0.5 -6.4 -0.6C-5.6 -1.7 -3.8 -2 -2.6 -2.9C-1.3 -3.7 -0.7 -5 0.3 -5.4C1.3 -5.7 2.6 -5.2 3.6 -4.3Z" stroke="#baebaf" fill="none" stroke-width="20"></path></g><g transform="translate(267 569)"><path d="M0.5 -0.6C0.8 -0.4 1.2 -0.4 1.4 -0.2C1.5 0 1.3 0.4 1.1 0.5C0.9 0.7 0.6 0.7 0.3 0.8C0 0.9 -0.2 1.1 -0.4 1.1C-0.6 1 -0.7 0.7 -0.8 0.5C-1 0.2 -1.2 0 -1.2 -0.2C-1.2 -0.5 -1 -0.7 -0.7 -0.8C-0.5 -0.9 -0.2 -1 -0.1 -1C0.1 -0.9 0.3 -0.7 0.5 -0.6Z" stroke="#baebaf" fill="none" stroke-width="20"></path></g><g transform="translate(561 2)"><path d="M3.3 -3.9C3.7 -3.5 3.2 -2 3.2 -0.8C3.1 0.5 3.6 1.4 3.4 2.2C3.2 3 2.4 3.5 1.3 4.2C0.2 4.9 -1.1 5.7 -1.6 5.2C-2.1 4.6 -1.8 2.8 -1.9 1.6C-2.1 0.4 -2.6 -0.1 -2.6 -0.6C-2.7 -1.2 -2.4 -1.8 -1.9 -2.1C-1.4 -2.4 -0.7 -2.4 0.4 -2.9C1.4 -3.3 2.8 -4.2 3.3 -3.9Z" stroke="#baebaf" fill="none" stroke-width="20"></path></g><g transform="translate(58 574)"><path d="M0.3 -0.3C0.4 -0.2 0.6 -0.2 0.7 -0.1C0.8 0 0.7 0.2 0.6 0.3C0.5 0.4 0.3 0.4 0.2 0.4C0.1 0.4 0 0.3 -0.1 0.3C-0.2 0.3 -0.4 0.3 -0.5 0.2C-0.6 0.2 -0.7 0 -0.6 -0.1C-0.6 -0.2 -0.4 -0.2 -0.3 -0.3C-0.1 -0.4 -0.1 -0.5 0 -0.5C0.1 -0.5 0.1 -0.4 0.3 -0.3Z" stroke="#baebaf" fill="none" stroke-width="20"></path></g><g transform="translate(240 524)"><path d="M2.3 -2.7C3.5 -1.7 5.2 -1.5 6.1 -0.5C6.9 0.5 6.9 2.2 6.1 3.4C5.3 4.6 3.7 5.4 2.2 5.9C0.6 6.5 -1 6.8 -2.3 6.4C-3.6 5.9 -4.5 4.5 -4.5 3.2C-4.6 1.9 -3.7 0.7 -3.4 -0.6C-3.1 -1.9 -3.5 -3.2 -3 -4.3C-2.6 -5.3 -1.3 -6 -0.4 -5.6C0.6 -5.2 1.1 -3.6 2.3 -2.7Z" stroke="#baebaf" fill="none" stroke-width="20"></path></g></g></svg>